<?xml version="1.0" encoding="UTF-8"?>
<!DOCTYPE svg PUBLIC "-//W3C//DTD SVG 1.1//EN" "http://www.w3.org/Graphics/SVG/1.1/DTD/svg11.dtd">
<!-- Creator: CorelDRAW 2019 (64-Bit) -->
<svg xmlns="http://www.w3.org/2000/svg" xml:space="preserve" width="96.8376mm" height="89.257mm" version="1.1" style="shape-rendering:geometricPrecision; text-rendering:geometricPrecision; image-rendering:optimizeQuality; fill-rule:evenodd; clip-rule:evenodd"
viewBox="0 0 5148.77 4745.72"
 xmlns:xlink="http://www.w3.org/1999/xlink"
 xmlns:xodm="http://www.corel.com/coreldraw/odm/2003">
 <defs>
  <style type="text/css">
   <![CDATA[
    .str0 {stroke:black;stroke-width:10.63;stroke-miterlimit:22.9256}
    .str4 {stroke:#101010;stroke-width:10.63;stroke-miterlimit:22.9256}
    .str3 {stroke:#818181;stroke-width:10.63;stroke-miterlimit:22.9256}
    .str2 {stroke:#999A95;stroke-width:10.63;stroke-miterlimit:22.9256}
    .str1 {stroke:#9B9B9B;stroke-width:10.63;stroke-miterlimit:22.9256}
    .fil2 {fill:none}
    .fil7 {fill:#101010}
    .fil8 {fill:#818181}
    .fil9 {fill:#818181}
    .fil4 {fill:#878787}
    .fil1 {fill:#E0E0E0}
    .fil5 {fill:#ECECEC}
    .fil3 {fill:#F4F4F4}
    .fil6 {fill:white}
    .fil0 {fill:white}
   ]]>
  </style>
 </defs>
 <g id="Capa_x0020_1">
  <metadata id="CorelCorpID_0Corel-Layer"/>
  <path class="fil0" d="M4242.31 4728.27l-3348.29 0 0.71 -56.28 0 -3277.78 650.12 -982.33 -2.8 -270.27c10.71,-92.92 59.62,-141.15 153.95,-141.61l877.18 0.83 877.18 -0.83c94.33,0.46 143.24,48.69 153.95,141.61l-2.8 270.27 641.34 991.09 0 3305.59 -0.53 19.71z"/>
  <rect class="fil1" x="-0" y="4677.61" width="5148.77" height="68.11" rx="30.95" ry="34.05"/>
  <rect class="fil1" x="146.3" y="3234.26" width="123.8" height="61.9" rx="0.74" ry="30.95"/>
  <rect class="fil1" x="360.13" y="3234.26" width="590.85" height="61.9" rx="3.55" ry="30.95"/>
  <rect class="fil1" x="4574.8" y="2851.63" width="455.8" height="61.9" rx="2.74" ry="30.95"/>
  <rect class="fil1" x="4197.79" y="2148.24" width="950.98" height="61.9" rx="5.72" ry="30.95"/>
  <rect class="fil2 str0" x="1198.59" y="2193.26" width="1479.92" height="1592.46"/>
  <rect class="fil3 str1" x="1172.44" y="2165.12" width="1532.22" height="1648.74"/>
  <path class="fil4" d="M4242.31 4728.27l-3348.29 0 0.71 -56.28 0 -3277.78 650.12 -982.33 -2.8 -270.27c10.71,-92.92 59.62,-141.15 153.95,-141.61l877.18 0.83 877.18 -0.83c94.33,0.46 143.24,48.69 153.95,141.61l-2.8 270.27 641.34 991.09 0 3305.59 -0.53 19.71zm-3285.68 -56.28l3224.31 0 0 -3265.16 -633.44 -975.64 4.91 -269.66c-4.4,-72.43 -35.28,-107.67 -92.23,-105.08l-887 -0.63 -887 0.63c-56.95,-2.59 -87.83,32.65 -92.23,105.08l4.91 269.66 -642.22 977.32 0 3263.48z"/>
  <line class="fil2 str2" x1="2928.29" y1="4664.97" x2="2928.29" y2= "1406.89" />
  <line class="fil2 str2" x1="956.69" y1="1406.89" x2="4187.35" y2= "1404.78" />
  <polygon class="fil5" points="3541.63,422.14 3299.67,807.6 4146.55,1359.05 "/>
  <rect class="fil5" x="1195.17" y="4020.67" width="1485.55" height="109.73" rx="19.69" ry="19.69"/>
  <rect class="fil5" x="1195.17" y="4245.75" width="776.54" height="109.73" rx="10.29" ry="19.69"/>
  <polygon class="fil6 str3" points="1380.87,3784.33 2492.21,3784.33 2492.21,2487.29 1611.57,2487.29 1605.95,2712.37 1380.87,2712.38 "/>
  <polygon class="fil2 str3" points="1605.6,2712.03 1380.97,2712 1381.04,2704.37 1606.11,2487.32 1611.23,2487.28 "/>
  <circle class="fil7" cx="1741.01" cy="2843.2" r="28.13"/>
  <circle class="fil7" cx="2127.88" cy="2843.2" r="28.13"/>
  <rect class="fil2 str3" x="2049.1" y="3349.64" width="66.12" height="339.03"/>
  <rect class="fil2 str3" x="2158.83" y="3230.06" width="66.12" height="458.61"/>
  <rect class="fil2 str3" x="2275.59" y="3277.9" width="66.12" height="410.77"/>
  <rect class="fil8" x="1997.05" y="3683.05" width="374.2" height="15.47" rx="7.74" ry="7.74"/>
  <rect class="fil9" x="1548.29" y="3664.76" width="343.25" height="15.47" rx="7.1" ry="7.74"/>
  <rect class="fil9" x="1548.29" y="3550.81" width="343.25" height="15.47" rx="7.1" ry="7.74"/>
  <rect class="fil9" x="1548.29" y="3436.86" width="343.25" height="15.47" rx="7.1" ry="7.74"/>
  <rect class="fil9" x="1548.29" y="3324.32" width="343.25" height="15.47" rx="7.1" ry="7.74"/>
  <polyline class="fil2 str2" points="2925.47,1404.07 3541.63,427.77 1600.29,430.58 "/>
  <path class="fil7 str4" d="M1937.54 2936.3c-37.63,-3.03 -75.96,4.71 -100.36,32.68 -19.56,22.44 12.65,-2.1 35.64,-7.52 50.09,-11.81 99.72,-7.22 144.38,16.37 25.15,13.29 12.83,-3.81 -10.44,-19.2 -22.44,-14.84 -42.51,-20.17 -69.23,-22.32z"/>
 </g>
</svg>
