<?xml version="1.0" encoding="UTF-8"?>
<!DOCTYPE svg PUBLIC "-//W3C//DTD SVG 1.1//EN" "http://www.w3.org/Graphics/SVG/1.1/DTD/svg11.dtd">
<!-- Creator: CorelDRAW 2019 (64-Bit) -->
<svg xmlns="http://www.w3.org/2000/svg" xml:space="preserve" width="66.1091mm" height="68.682mm" version="1.1" style="shape-rendering:geometricPrecision; text-rendering:geometricPrecision; image-rendering:optimizeQuality; fill-rule:evenodd; clip-rule:evenodd"
viewBox="0 0 3980.38 4135.3"
 xmlns:xlink="http://www.w3.org/1999/xlink"
 xmlns:xodm="http://www.corel.com/coreldraw/odm/2003">
 <defs>
  <style type="text/css">
   <![CDATA[
    .str1 {stroke:#ECC441;stroke-width:30.1;stroke-miterlimit:22.9256}
    .str0 {stroke:#CA281D;stroke-width:4.59;stroke-miterlimit:22.9256}
    .fil47 {fill:none}
    .fil32 {fill:#533523}
    .fil37 {fill:#56341C}
    .fil28 {fill:#65442C}
    .fil20 {fill:#6A442B}
    .fil38 {fill:#6C4425}
    .fil41 {fill:#724428}
    .fil15 {fill:#AE1A16}
    .fil22 {fill:#AEB1B5}
    .fil30 {fill:#AFAEB1}
    .fil5 {fill:#B3B5BA}
    .fil27 {fill:#BCBDC2}
    .fil31 {fill:#C1C4C5}
    .fil12 {fill:#C2C5C9}
    .fil11 {fill:#C2C5CA}
    .fil18 {fill:#C3C6CA}
    .fil8 {fill:#C8281C}
    .fil43 {fill:#C9281E}
    .fil0 {fill:#CA281D}
    .fil33 {fill:#CC291D}
    .fil26 {fill:#D7D9DB}
    .fil29 {fill:#DADADD}
    .fil34 {fill:#DCDCDD}
    .fil24 {fill:#E3332C}
    .fil2 {fill:#E7E7E7}
    .fil4 {fill:#E9332E}
    .fil46 {fill:#F3F3F3}
    .fil25 {fill:#F7B608}
    .fil35 {fill:#F7D548}
    .fil40 {fill:#F7F7F9}
    .fil42 {fill:#F9AA08}
    .fil6 {fill:#FAFAFA}
    .fil3 {fill:#FCAC04}
    .fil10 {fill:#FCB303}
    .fil36 {fill:#FCBC03}
    .fil13 {fill:#FCC10B}
    .fil23 {fill:#FCFCF9}
    .fil16 {fill:#FCFCFC}
    .fil21 {fill:#FDBD0B}
    .fil39 {fill:#FDCC47}
    .fil7 {fill:#FDD344}
    .fil9 {fill:#FDFDFD}
    .fil17 {fill:#FEAA01}
    .fil1 {fill:#FEBE02}
    .fil19 {fill:#FEC105}
    .fil14 {fill:#FED33C}
    .fil44 {fill:#FEFCF4}
    .fil45 {fill:#FFF5F3}
    .fil48 {fill:black;fill-rule:nonzero}
   ]]>
  </style>
 </defs>
 <g id="Capa_x0020_1">
  <metadata id="CorelCorpID_0Corel-Layer"/>
  <path class="fil0" d="M2953.78 2412.19l1 46.13c-64.2,15.94 -637.5,22.86 -667.31,1.07 -16.93,11.22 -3.87,0.32 -15.62,13.64 -57.86,65.55 -150.41,240.27 -153.37,322.46 110.48,-2.56 267.92,-19.78 350.77,25.85 -94.93,-17.33 -255.44,-31.08 -360.15,-11.02 -8.5,34.57 -22.75,62.31 -18.07,99.01 -2.53,29.47 -2.28,72.85 -5.47,102.51 -5.24,48.64 -0.33,14.23 -11.08,29.83 -21.31,30.89 -13.15,-25.69 -19.25,34.1l126.83 -0.42c4.96,-20.41 3.19,-11 8.49,-33.1 2.49,51.72 1.45,18.18 13.73,30.91l-606.93 0.84c-85.92,-1.26 -64.8,-17.23 -97.71,17.61 86.41,39.06 190.12,26.76 303.24,26.76 110.33,0 567.99,13.45 636.4,-10.92l53.54 -26.62c64.57,-37.52 68.31,-110.53 68.31,-176.46 12.1,9.51 37.4,14.86 36.01,71.46 -0.76,31.48 -8.25,50 -21.63,74.45 -83.94,153.3 -229.86,112.69 -433.68,112.69 -69.82,0 -525.63,6.62 -577.29,-6.03 -30.12,-7.38 -55,-18.77 -59.72,-49.01 -4.71,-30.21 -10.34,7.04 1.95,-17.36l-55.51 13.73c1.49,-2.56 7.38,-10.1 7.82,-11.8 9.25,-36.06 -87.15,-122.56 -8.21,-238.72 11.16,-16.41 14.76,-20.04 27.77,-32.13l9.26 -8.13c1.39,-1.11 3.53,-2.73 4.97,-3.81 0.68,-0.49 15.99,-10.23 21.45,-13.47 97.82,-58.13 379.29,-0.52 444.59,-30.85 21.77,-20.93 51.83,-121.8 66.4,-155.84 24.28,-56.69 43.07,-91.79 74.68,-139.59l-990.39 0.11c17.26,61.91 6.45,414.05 6.35,505.64 -0.08,84.19 -12.11,453.22 4.95,502.49 73.21,-11.41 1111.24,-2.93 1279.61,-2.93 104.35,0 348.41,-12.19 436.06,5.33l36.39 -67.78 -9.1 -0.02 -0.84 -942.12 95.73 -0.54c-7.04,97.5 -9.27,841.85 5.29,880.53 44.13,-19.07 74.58,-20.67 126.48,-17.17 -12.16,-53.64 -15.29,-886.79 -3.16,-920.08l37.44 6.66c-28.7,-40.73 -85.36,-70.13 -108.77,-106.31l25.85 -33.75c12.79,-21.98 -3.64,7.1 9.45,-22l30.63 0.12c-37.61,-31.64 -86.63,-60.77 -126.05,-92.75l-2.15 246.8z"/>
  <path class="fil1" d="M2840.72 1109.63c199.11,-37.47 185.73,112.06 6.94,153.35 -202.2,46.7 -204.28,-116.21 -6.94,-153.35zm-466.08 188.02l25.28 -0.11c12.18,50.27 85.82,123.16 122.7,164.04l136.63 137.81c43.15,-30.66 67.22,-14.44 104.6,22.3 1.28,1.26 3.12,3.14 4.44,4.37l34.72 27.18c15.84,11.69 28.64,19.48 43.48,29.07 0,83.67 3.53,17.77 -19.97,44.51 0.96,40.9 100.91,106.22 130.07,130.83 50.02,42.22 98.82,78.99 147.13,120.61 38.3,32.99 283.48,233.66 295.9,237.3l19.15 -23.81c46.94,-1.55 60.81,4.92 92.18,34.68 13.85,-32 265.43,-314 160.9,-504.79 -30.75,-56.13 -57.76,-99.92 -101.27,-147.95 -63.68,-70.31 -140.81,-153.58 -223.14,-205 -85.74,-53.56 -84.09,-58.37 -193.19,-109.85 -29.2,-13.79 -90.57,-36.32 -59.19,-111.74 12.25,-29.44 -1.16,-19.45 36.16,-22.43 2.34,112.48 -3.06,73.09 159.99,165.98l273.9 226.18c41.57,48.02 111.66,142.8 136.21,201.15 4.12,9.79 17.67,51.62 19.6,59.28 14.56,57.28 0.02,42.47 29.52,71.02 1.08,-44.16 -17.48,-132.67 -29.7,-164.32l-117.88 -267.86c-17.51,-32.25 -64.51,-97.43 -70.93,-124.7 -34.4,-44.42 -179.6,-135.93 -247.45,-163.1 -109.97,-44.04 -199.91,-72.4 -339.85,-72.4 -227.69,0.01 -298.63,64.14 -452.5,164.9 -45.49,29.78 -77.04,51.53 -117.51,76.86z"/>
  <path class="fil2" d="M500.82 3633.84c0.51,-21.77 -0.01,-44.6 4.92,-66.06 7.18,-31.19 3.89,-24.98 24.14,-33.6 22.21,-37.52 53.95,-24.08 96.94,-15.55 32.28,6.41 62.95,11.41 93.57,20.1 66.01,3.58 107.36,21.85 164.32,31 53.87,8.66 128.65,32.15 170.83,30.74l6.95 -26.47 41.79 4.46 -2.1 54.04 468.76 11.24c0.14,45.45 5.4,25.44 -31.22,50.17 -16.99,11.47 -3.97,-3.23 -14.67,13.21 26.17,17.77 30.57,15.79 63.54,20.04 -18.73,22.1 28.34,21.9 -31.21,16.59 2.01,1.6 5.19,1.19 6.33,4.41 1.12,3.14 4.77,3.29 6.32,4.12 41.04,21.49 28.47,4.89 54.54,24.27 -120.56,23.73 -392.81,-56.13 -537.22,-66.95l-20.71 76.35c-60.04,-9.88 -25.64,-7.42 -48.77,-47.05 -52.86,-2.49 -291.16,-25.04 -324.07,-41.49 -19.89,-0.66 -13.61,0.14 -30.66,-3.44 -2.05,-0.43 -5.44,-0.3 -6.91,-3.22 -1.35,-2.68 -3.86,-2.61 -5.83,-3.87 -55.08,10.07 -114.34,-13.13 -145.92,-31.15 -14.58,21.28 -107.59,15.75 -152.4,36.37 52.1,87.47 879.69,119.21 1031.46,119.64 70.05,-5.33 234.26,15.59 271.73,-33.27l-74.47 -29.47c27.62,-22.4 -40.14,-25.35 40.51,-10.83 -22.16,-36.71 -31.68,-18.97 -35.91,-75.31 -2.89,-38.39 -4.02,-63.28 23.25,-74.97 19.66,-34.03 40.06,-26.34 86.88,-25.03 33.52,0.93 66.75,1.82 100.28,1.89l328.14 12.29 26.72 -28.21 42.68 -3.61 0.41 90.85 455.13 -0.26c30.25,-3.95 99.97,-22.69 119.61,17.79 -13.08,25.04 11.14,7.39 -27.34,21.66 -31.39,11.64 -76.68,2.52 -93.81,-0.04l-453.14 -1.44c-0.11,36.06 5.48,54.52 -7.83,80.1 -72.68,3.61 -29.08,-4.04 -47.59,-17.88 -13.93,-10.42 0.73,-7.66 -24.29,-13.75 -1.25,-0.31 -33.48,-1.79 -38.07,-2.28 -12.76,11.25 11.66,6.14 -32.27,12.06l-247.95 2.52 -29.03 -0.58 -142.73 0.24c2.2,2.58 6.57,1.08 8.66,5.35 10.78,22.21 112.85,5.38 178.61,11.02l383.57 15.84c66.28,-6.81 138.09,-11.43 204.97,-5.33l36.93 28.11c20.36,-19.91 -6,-7.62 21.71,-5.79l180.74 41.13c144,22.43 609.47,72.36 699.31,7.44 -23.11,-56.6 -70.65,-14.13 -76.45,-59.83 -24.61,13.83 -37.84,30.07 -68.06,33.98 -26.29,3.39 -67.98,-0.95 -95.09,-3.68 -62.53,-6.27 -119.97,-11.43 -181.56,-17.35 -66.14,-3.7 -60.11,2.6 -104.81,-21.37l-269.74 -27.25c-22.89,43 8.95,19.53 -26.81,33.21 -10.16,-20.12 -3.65,-30.62 0.89,-59.75l275.67 26.19 20.48 -33.54c3.61,-70.99 12.49,-152.35 22.63,-211.69l-1992.3 -4.43 -0.93 -129.27c-165.76,14.69 -769.01,34.33 -842.92,126.89 8.82,26.78 7.84,24.72 42.9,37.82 95.65,35.74 340.78,61.37 439.8,70.51l15.06 33.26c0.59,-1.44 1.79,5.53 3.06,8.13z"/>
  <path class="fil3" d="M3510.94 2226.44c66.55,66.56 67.1,40.91 80.76,89.15 -1.91,1 -5.42,-1.15 -6.35,1.16 -11.38,28.41 -14.59,-29.84 -54.74,32.34 -16.89,26.15 -22.96,39.04 -41.85,61.07 -34.1,-3.68 -105.01,-70.7 -133.8,-89.65 -30.08,13.07 -2.69,-5.69 -28.74,17.92 -0.1,18.1 3.5,7.62 -4.91,20.31 -48.02,-4.65 -141.61,-101.83 -180.63,-131.87 -100.1,-77.08 -483.08,-337.11 -572.88,-374.71l37.53 -8.98 -76.46 -70.65c-54.45,-9.56 -312.64,-265.75 -356.45,-317.33l-102.86 -119.33 -21.72 0.07 4.73 28.85c-94.35,-11.5 -31.77,-25.39 -86.47,-33.8 -91.4,35.41 129.94,207.38 185.12,262.09l6.82 14.69c31.24,16.99 167.92,130.1 188.44,155.74 21.33,16.67 36.67,40.64 55.15,61.29 48.6,1.14 94.05,43.95 120.41,67.85l27.44 15.61c21.4,12.83 43.88,26.06 66.44,39.16 -3.4,53.15 -17.7,80.65 -17.21,126.68l9.4 0.66 21.03 -98.93c6.2,-1.6 12.83,-7.12 34.92,4.23 15.46,7.95 15.78,10.39 29.65,23.34l-15.56 87.19c70.98,10.24 115.36,27.54 203.48,39.39 2.8,0.38 5.18,0.63 7.82,1.02 2.52,0.39 5.21,0.91 7.43,1.29l14.02 3.09 45.02 30.01c39.43,31.98 88.44,61.11 126.05,92.75 32.6,26.87 57.14,47.41 88.03,72.97 25.64,21.21 74.58,51.79 84.01,78.6l23.45 2.09 5.67 17.99 19.41 17.49c25.85,8.09 13.63,0.01 25.66,19.32l21.33 18.32 14.15 9.12 37.5 25.69c31.57,26.38 119.5,124.75 162.58,67.69 34.33,-45.48 9.75,-155.58 170.93,-382.71 21.71,-30.6 90.05,-145.61 88.76,-185.14 0.17,-45.48 10.55,-100.15 10.85,-150.1 0.34,-57.57 -16.09,-89.72 -21.68,-138.77 -29.8,-167.88 -179.63,-363.29 -280.67,-439.29 6.42,27.27 53.42,92.45 70.93,124.7l117.88 267.86c12.21,31.66 30.77,120.17 29.7,164.32 -29.5,-28.55 -14.96,-13.74 -29.52,-71.02 -1.94,-7.66 -15.49,-49.49 -19.6,-59.28 -24.55,-58.35 -94.63,-153.13 -136.21,-201.15l-273.9 -226.18c-163.06,-92.88 -157.65,-53.5 -159.99,-165.98 -37.32,2.98 -23.9,-7.01 -36.16,22.43 -31.39,75.42 29.98,97.95 59.19,111.74 109.1,51.48 107.46,56.28 193.19,109.85 82.32,51.42 159.46,134.69 223.14,205 43.5,48.03 70.51,91.83 101.27,147.95 104.54,190.79 -147.04,472.79 -160.9,504.79z"/>
  <path class="fil4" d="M838.4 1563.46l3.98 41.88c-59.17,1.4 -60.93,-7.24 -101.96,17.23 1.6,2.44 2.76,5.82 3.78,7.91l18.59 35.48c19.02,-32.51 41.52,-30.97 80.75,-22.1 -0.55,28.39 16.94,103.87 -3.82,114.76l3.21 1598.62 0.93 129.27 1992.3 4.43 0.43 -10.34c-87.65,-17.52 -331.71,-5.33 -436.06,-5.33 -168.37,0 -1206.4,-8.48 -1279.61,2.93l-100.19 0.76 -126.26 -3.63 2.78 -1052.69c-3.4,-1.21 -7.41,-4.26 -8.55,-2.14 -0.32,0.59 -31.54,8.51 -31.34,-53.01l151.64 1.13 14.81 38.82c0.72,1.5 1.99,4.47 3.48,6.36l-3.19 -644.85 24.96 -15.51 -26.74 -206.37c-13.44,-9.9 -31.37,-15.44 -68.06,-17.5l-96.11 2.98 -19.74 30.91z"/>
  <path class="fil0 str0" d="M2091.03 2909.33c-1.6,2.21 -3.22,5.17 -4.15,7.04l-9.92 21.52c-2.37,7.11 -4.6,22.72 -6.09,30.64 -6.89,36.7 -21.33,75.21 -67.1,64.51l-43.48 -31.81c-42.63,-32.74 -46.7,-67.6 -22.07,-126.51l20.7 -109.36c-65.3,30.32 -346.77,-27.29 -444.59,30.85 -5.45,3.25 -20.77,12.98 -21.45,13.47 -1.45,1.08 -3.58,2.69 -4.97,3.81l-9.26 8.13c-13.01,12.1 -16.62,15.72 -27.77,32.13 -78.94,116.17 17.45,202.66 8.21,238.72 -0.43,1.7 -6.33,9.24 -7.82,11.8l55.51 -13.73c-12.29,24.41 -6.66,-12.84 -1.95,17.36 4.72,30.24 29.59,41.63 59.72,49.01 51.65,12.64 507.47,6.03 577.29,6.03 203.82,0 349.74,40.61 433.68,-112.69 13.38,-24.44 20.86,-42.97 21.63,-74.45 1.38,-56.6 -23.92,-61.95 -36.01,-71.46 0,65.94 -3.74,138.95 -68.31,176.46l-53.54 26.62c-68.41,24.37 -526.07,10.92 -636.4,10.92 -113.12,0 -216.83,12.29 -303.24,-26.76 32.9,-34.84 11.78,-18.87 97.71,-17.61l606.93 -0.84c-12.28,-12.73 -11.24,20.81 -13.73,-30.91 -5.3,22.1 -3.53,12.69 -8.49,33.1l-126.83 0.42c6.1,-59.78 -2.07,-3.2 19.25,-34.1 10.76,-15.6 5.85,18.82 11.08,-29.83 3.19,-29.65 2.94,-73.04 5.47,-102.51z"/>
  <path class="fil5" d="M1490.71 1738.71c-11.96,30.68 -170.65,176.83 -201.26,206.43 -36.72,35.52 -70.94,69.59 -106.71,107.03 -33.78,35.37 -77.48,52.87 -81.69,121.77l72.16 237.04 -83.36 -5.74 0 9.54 139.07 -2.33c1.65,-1.8 4.12,-7.24 4.83,-5.52 0.64,1.55 3.64,-4.06 4.49,-4.9 1.12,-1.13 5.3,-5.35 7.6,-7.23 -22.84,-21.67 -88.18,-223.07 -93.35,-260.47l103.64 -107.14c100.72,54.91 83.26,22.17 57.02,71.64l58.64 24.87c1.6,36.19 0.82,6.62 -14.78,37.28l59.53 24.13 -15.08 37.22 58.82 26.49c-8.36,27.24 -16.32,17.35 -15.69,33.76l47.64 20.62c-10.83,-71.31 -32.62,-137.24 -48.28,-206.62 -14.62,-64.7 -20.65,-146.83 -28.05,-214.43 17.65,-47.04 -5.39,1 50.81,-54.33 17.74,-17.48 27.35,-34.99 50.72,-42.65 19.52,11.05 38.17,26.98 47.38,48.73l-16.38 29.71 49.28 0.33c18.47,35.24 27.38,209.16 28.11,264.32 1.45,109.18 1.35,177.78 16.14,276.49 17.56,11.55 41.89,8.91 69.15,8.91 -1.17,-3.29 -2.73,-6.77 -3.99,-9.71 -30.17,-71.24 -22.5,-57.6 -22.33,-159.72 0.18,-100.61 -30.07,-302.23 -16.27,-331.8 48.87,-104.85 -54.33,-32.11 -21.28,-136.81l73.26 -11.11 38.58 -3.2 -171.81 1.17c-2.94,-74.32 48.53,-94.43 115.98,-108.22 132.26,-27.06 178.01,19.07 197.61,-25.46 1.67,-22.54 -1.28,-5.36 9.06,-18.69l181.87 -1.47 66.27 -0.86 -6.82 -14.69c-48.88,16.32 -163.93,9.14 -224.11,8.59 -42.69,-0.38 -109.7,-31.38 -151.46,-51.33 -13.28,-6.35 -10.68,-4.91 -17.92,-10.79 105.55,-136.44 130.26,-27.72 5.74,-388.52 -21.65,-62.76 -17.66,-83.29 -63.95,-122.01 10.77,154.18 165.22,341.35 89.6,425.4 -36.7,40.79 -154.91,136.72 -220.03,216.83 -24.74,30.43 -43.16,55.69 -78.39,67.46z"/>
  <path class="fil6" d="M1643.88 3886.94c13.42,24.87 -0.94,13.84 28.92,29.79 -2.16,2.18 -5.35,2.25 -6.74,6.29 -9.24,27.05 -0.93,2.46 -13.23,10.16 -43.88,27.46 -89.99,73.47 -140.31,81.67 24.67,-51.6 74.73,-61.6 111.03,-94.82 29.42,-26.94 -4.82,-17.14 20.33,-33.09zm-260.29 -75.18c-25.17,24.25 34.46,20.21 -35.64,20.21 -0.22,23.28 -1.52,0.7 13.6,19.63l13.13 16.05c-40.79,-0.62 -38.46,-7.29 -66.4,-2.9 -36.54,5.72 -20.77,17.23 -31.68,2.99 15.12,-10.27 46.96,-9.37 63.12,-7.54l43.88 34.22c-28.79,-18.28 -131.03,6.59 -160.48,17.93 33.68,40.89 -8.86,4.24 26.71,19.88 42.25,18.59 100.03,-17.66 147.57,-10.34l71.1 17.9c22.79,8.43 30.34,11.76 33.8,32.85l-82.99 10.98c8.48,-22.82 22.85,-4.82 35.64,0.1 -23.25,29.56 7.47,13.73 -41.37,35.93 -6.41,2.91 -28.7,5.3 -38.95,5.44l-62.4 -5.7c48.35,1.58 39.77,12.56 96,14.38l108.08 5.06c2.57,-0.17 4.99,-0.33 7.46,-0.64 22.55,-2.9 50.77,-14.37 73.91,-21.84 -16.89,35.78 14.49,1.57 -17.83,21.71l-13.49 0.93c-0.48,-1.52 -3.15,-0.76 -4.36,-1.75l75.39 0.58c38.05,6.94 -11.61,14.51 38.68,2.05 64.79,-16.05 181.14,-8.22 250.89,-5.73l82.82 2.99c49.78,2.38 25.73,-5.63 46.68,-8.83l37.39 4.94c47.38,8.28 -7.63,-5.91 46.46,1.22 36.25,4.78 68.26,7.46 70.65,54.49 1.05,20.6 -6.1,20.6 -6.72,46.37 -0.76,-0.65 -0.59,-2.74 -0.46,-2.96l22.55 -6.12c1.34,0.17 4.35,1.07 5.6,1.29 23.04,4.02 -8.39,9.62 17,-1.18 -41.42,-13.26 -25.93,-6.82 -26.76,-62.35 21.19,2.99 51.16,25.28 62.44,8.92 0.06,0.08 26.36,16.15 -3.12,4.62l-13.69 -22.39c-0.56,-1.91 -0.45,-4.27 -0.78,-8.66 -0.36,-4.68 -0.76,-6.2 -0.14,-9l33.43 4.83c-2.84,9.74 13.38,19.78 13.73,18.83 0.7,-1.87 7.75,4.44 4.65,4.33l-7.32 -10.41c29.14,-23.66 -10.66,-8.59 32.8,-23.51l56.31 -21.13 -82.05 -33.36c-35.01,0.95 -169.04,-18.59 -200.66,-3.94 -0.84,0.4 -2.79,1.91 -3.64,2.46 -43.96,27.67 34.21,22.29 -52.57,25.87l8.97 -26.76c-35.26,-3.86 -16,-11.92 -31.69,-1.26 -17.42,11.86 -23.13,30.56 -47.53,28.77l-28.18 -6.21c-44.45,-14.68 -16.45,-6.36 -25.05,-3.79 -89.76,26.79 -75.6,11.38 -90.55,-17.47l26.11 -5.86c31.24,-2.38 80.25,4.6 112.87,-14.67 -73.67,16.33 -210.56,-12.9 -263.87,-50.83 12.38,-66.81 18.18,-65.93 44.51,-44.65l0.11 -26.56c-0.81,-2.95 -16.05,-24.52 -17.86,-26.87 26.36,-1.78 40.83,-2.72 53.52,-17.85 18.52,18.04 0.59,3.6 0.61,3.38l-0.65 -20.24 332.39 18.01c0.86,-2.32 4.32,-1.18 6.53,-1.16l8.92 89.11c-28.17,-7.25 -26.89,-5.76 -56.09,-5.46 -43.45,0.45 -5.74,0.22 -41.98,-3.46 -0.24,37.74 -9.22,5.01 -8.88,62.44 -6.14,-39.72 3.26,-5.83 5.82,-26.72 0.95,-7.71 8.21,-5.59 11.93,-8.87 11.86,15.92 43.08,9.07 71.46,8.88 -27.38,-0.19 -35.61,4.67 -62.41,-3.58 -26.19,-8.07 -9.27,0.26 -26.79,-14.26 17.86,-14.79 24.16,-18.09 62.23,-19.11 18.41,-0.49 42.97,1.31 62.6,1.31 0.21,1.54 -0.25,3.78 -0.46,4.64l-17.33 48.81c61.4,-0.93 115.17,-13.43 169.57,-31.02l169.31 -67.11c-25.87,-32.9 0.59,-7.57 -30.49,-28 -10.8,-7.1 -0.84,0.67 -21.92,-7.59 10.94,59.31 9.38,17.16 -16.06,32.99 -8.78,-38.7 16.65,-29.52 -97.06,25.77 -43.9,21.35 -83.23,48.69 -132.19,49.97 30.08,-73.67 184.02,-69.87 208.37,-135.07 -66.88,-6.1 -138.69,-1.48 -204.97,5.33l-383.57 -15.84c-65.76,-5.65 -167.83,11.19 -178.61,-11.02 -2.08,-4.27 -6.45,-2.77 -8.66,-5.35l-3.16 3.96c-80.65,-14.53 -12.88,-11.57 -40.51,10.83l74.47 29.47c-37.47,48.86 -201.68,27.94 -271.73,33.27z"/>
  <path class="fil7" d="M1321.23 932.21c-17.45,12.32 -27.5,13.19 -41.85,6.08l-228.55 90.22c-38.17,12.93 -71.43,25.02 -111.45,38.78 -58.65,20.18 -63.41,32.22 -94.04,20.62l-12.56 -7.87c-1.14,-3.22 -4.11,-3.19 -6.15,-4.79l2.75 32.57 -60.68 15.05c-24.57,16.15 -28.64,15.96 -66.63,13.77 -26.19,35.69 -215.98,84.01 -275.51,105.98 -94.03,34.7 -204.89,64.02 -283.19,98.85l0.77 37.79 15.84 16.99c23.83,-49.94 88.51,-55.6 135.56,-71.21l955.85 -328.34c42.49,-14.91 119.18,-64.62 155.55,-28.05 -1.9,1.78 -5.03,1.45 -6.18,4.74l-1170.67 404.2c-43.02,13.99 -37.81,14.85 -60.76,44.68l26.29 74.5c11.61,-42.87 52.63,-45.54 135.49,-73.11l1028.98 -353.89c57.73,-19.91 59.53,-22.01 87.45,-3.33 -8.87,-36.97 -38.47,-127.21 -54.1,-152.73l-72.18 18.5z"/>
  <path class="fil8" d="M1020.72 3478.95l15.11 -1003.74c1.26,-0.63 17.38,-6.71 17.95,-6.88 -38.56,-11.4 -26.15,4.05 -30.45,-36.77 17.27,-16.27 0.91,-18.74 83.68,-16.61l230.78 -1.88 -108.88 -0.6 -139.07 2.33 -53.51 -0.5 -9.06 -0.49c-1.49,-1.9 -2.76,-4.86 -3.48,-6.36l-14.81 -38.82 -151.64 -1.13c-0.19,61.53 31.03,53.6 31.34,53.01 1.14,-2.13 5.15,0.93 8.55,2.14l-2.78 1052.69 126.26 3.63z"/>
  <path class="fil9" d="M2058.64 2411.47l32.63 -5.03c-2.64,-39.03 12.2,-98.65 19.8,-141.7 7.54,-42.68 20.12,-92.36 21.92,-132.84 10.22,-63.06 20.15,-115.19 30.68,-178.11 8.46,-50.53 18.53,-134.65 33.49,-181.98l-425.2 -3.2 286.69 642.85z"/>
  <path class="fil1" d="M195.6 1496.77l20.37 60.65c56.53,15.19 255.22,-68.02 321.89,-90.42 212.35,-71.31 597.41,-199.2 781.16,-271.75 56.92,-22.47 114.47,-20.15 142.95,-69.85 2.5,-26.31 -1.26,-33.28 -14.46,-58.96 -27.92,-18.68 -29.72,-16.58 -87.45,3.33l-1028.98 353.89c-82.85,27.56 -123.87,30.24 -135.49,73.11z"/>
  <path class="fil1" d="M2605.34 1843.19l-37.53 8.98c89.8,37.6 472.78,297.63 572.88,374.71 39.03,30.04 132.61,127.22 180.63,131.87 8.42,-12.69 4.82,-2.21 4.91,-20.31 -19.59,-13.62 -13.88,19.16 -10.27,-31.81 0.55,-7.71 9.22,-21.58 12.29,-26.14l-22.9 -20.75c-84.34,-66.59 -500.72,-401.33 -525.34,-439.59l-49.46 26.12c-19.89,-11.7 -136.63,-101.32 -146.21,-119.45 -27.72,-28.08 -23.22,36.41 -21.63,-33.89l34.08 -33.64c-43.25,-7.39 -220.37,-230.19 -277.44,-316.23l-8.22 -11.67 -120.05 38.68c35.18,60.08 124.96,159.15 181.77,214.83 51.12,50.11 55.01,63.76 128.83,129.96 22.48,20.16 40.36,40.37 62.91,61.87 42,40.03 88.76,74.58 127.17,118.35 -38.93,-10.79 -55.09,-38.88 -86.43,-51.87z"/>
  <path class="fil3" d="M246.14 1648.9l3.48 24.4c15.97,24.73 18.15,31.95 9.5,50.54 23.52,14.7 13.53,16.35 36.88,18.9 23.96,2.61 466.07,-160.68 542.4,-179.29l19.74 -30.91 96.11 -2.98c9.78,-7.02 494.96,-166.32 517.08,-169.19 8.09,-35.72 -9.57,-8.67 26.32,-28.05 22.55,-12.19 11.05,1.94 36.36,-17.81l-34.64 -98.6c-20.59,25.08 -33.43,31.35 -69.58,42.78 -16.28,5.15 -22.97,6.68 -41.1,12.73 -2.77,0.93 -10.62,3.73 -13.34,4.63 -2.08,0.68 -4.4,1.46 -6.47,2.13l-450.96 155.81c-2.45,0.81 -4.73,1.59 -7.2,2.39 -2.44,0.8 -4.72,1.55 -7.14,2.33l-257.44 89.39c-30.11,12.73 -47.31,14.77 -73.67,22.45 -84.05,24.51 -253.79,111.5 -326.34,98.35z"/>
  <path class="fil2" d="M3251.44 3439.37c43.76,64.14 37.55,105.43 32.6,196.35 4.59,-6.62 5.55,6.56 17.41,-27.52 116.46,-6.77 616.46,-36.76 678.93,-115.15 -11.54,-35.05 -29.67,-35.87 -69.67,-46.82 -151.69,-41.51 -603.98,-90.95 -720.76,-80.47l61.49 73.61z"/>
  <path class="fil10" d="M215.97 1557.43l30.17 91.47c72.55,13.15 242.29,-73.84 326.34,-98.35 26.36,-7.68 43.56,-9.72 73.67,-22.45l257.44 -89.39c2.42,-0.78 4.7,-1.53 7.14,-2.33 2.47,-0.8 4.74,-1.58 7.2,-2.39l450.96 -155.81c2.08,-0.66 4.4,-1.45 6.47,-2.13 2.72,-0.9 10.57,-3.7 13.34,-4.63 18.13,-6.06 24.82,-7.59 41.1,-12.73 36.15,-11.43 49,-17.7 69.58,-42.78 -3.58,-17.95 -6.37,-26.89 -13.14,-45.86 -3.78,-10.63 -6.79,-18.28 -11.26,-26.48 -7.22,-13.24 -5.71,-10.26 -12.99,-18.16 -28.49,49.7 -86.04,47.38 -142.95,69.85 -183.75,72.56 -568.82,200.45 -781.16,271.75 -66.67,22.39 -265.36,105.61 -321.89,90.42z"/>
  <path class="fil11" d="M1641.96 2404.75l2.08 6.18 453.15 2.82 -5.92 -7.32 -32.63 5.03 -50.97 -6.8 -145.41 -318.12c-36.27,-79.95 -127.02,-251.45 -141.77,-322.04l-73.26 11.11c-33.05,104.7 70.15,31.97 21.28,136.81 -13.79,29.57 16.46,231.19 16.27,331.8 -0.17,102.12 -7.85,88.48 22.33,159.72 1.26,2.94 2.82,6.42 3.99,9.71 -27.26,0 -51.59,2.64 -69.15,-8.91z"/>
  <path class="fil12" d="M2294.99 2324.23c-7.5,-71.66 45,-70.14 59.11,-41.36 21.43,43.71 -35.28,47.76 -59.11,41.36zm-162.01 -192.33c41.29,3.93 33.37,-8.35 62.37,-3.58l2.55 16.72c-0.13,2.01 0.2,5.49 -0.11,7.94 -3.61,28.65 -33.22,61.24 6.53,126.88 51.4,-22.6 -8.85,18.41 23.72,-18.9 36.34,-41.62 -10.58,12.7 15.4,-25.63 20.3,-29.93 4.38,-20.43 49.99,-26.73 -131.99,76.39 -25.7,173.19 45.62,148.4 56.48,-19.63 46.51,-72.3 58.38,-94.88 17.43,-33.17 -19.31,5.59 20.89,-26.76 10.04,23.89 8.78,24.55 11.36,58.48 13.66,-63.26 41.41,-209.11 31.59,-273.29l-28.59 -15.27c-14.37,63 -2.57,47.16 2.1,81.69 7.08,52.38 -13.31,35.14 -26.13,58.01 -22.16,39.53 38.64,86.13 -78.72,74.05l71.73 -394.22c-18.48,-20.65 -33.82,-44.62 -55.15,-61.29l-149.08 -1.19 -0.26 9.49c-14.96,47.33 -25.03,131.45 -33.49,181.98 -10.54,62.92 -20.47,115.05 -30.68,178.11z"/>
  <path class="fil13" d="M3029.04 3438.76c165.4,-43.71 223.08,213.57 61.73,253.1 -165.33,40.48 -239.55,-206.1 -61.73,-253.1zm61.49 -105.27c-51.89,-3.5 -82.34,-1.9 -126.48,17.17 -34.59,17.26 -75.57,57.65 -91.08,62.15l-36.39 67.78 -0.43 10.34c-10.15,59.34 -19.03,140.7 -22.63,211.69l-0.48 61.14c44.69,23.97 38.67,17.67 104.81,21.37 -13.54,-9.78 -4.9,-5.8 -27.11,-11.89 -40.92,-11.2 -55.03,5.86 -53.18,-35.42 187.61,-30.14 380.25,138.89 407.03,-112.45 5.72,-53.75 -4.69,-150.74 6.85,-186l-61.49 -73.61c-16.25,-0.33 -28.35,-5.1 -52.33,-15.43l1.46 -920.26 -1.46 -8.61 -2.29 921.76 -44.81 -9.72z"/>
  <path class="fil14" d="M2136.7 1316.19c10.31,46.68 151.02,205 183.79,240.75 37.91,41.36 65.19,67.95 100.47,104.85 34.37,35.97 87.17,67.9 107.91,110.76l76.46 70.65c31.34,12.99 47.51,41.08 86.43,51.87 -38.41,-43.77 -85.18,-78.32 -127.17,-118.35 -22.54,-21.49 -40.42,-41.7 -62.91,-61.87 -73.82,-66.19 -77.71,-79.85 -128.83,-129.96 -56.81,-55.68 -146.59,-154.76 -181.77,-214.83l120.05 -38.68 63.51 -33.72c40.47,-25.33 72.02,-47.08 117.51,-76.86 153.86,-100.75 224.81,-164.88 452.5,-164.9 139.93,0 229.87,28.36 339.85,72.4 67.85,27.17 213.05,118.68 247.45,163.1 101.04,76 250.86,271.42 280.67,439.29 3.76,-120.93 -140.92,-333.63 -221.05,-418.68 -94.97,-100.81 -210.64,-181.96 -337.64,-234.06 -19.16,-7.86 -43.68,-11.4 -57.08,-29.02 91.44,-46.26 189.95,39.12 270.84,92.69l144.73 122.8c82.25,88.39 80.04,93.64 148.22,182.05 9.22,11.96 15.99,25.07 31.56,27.82 -47.11,-151.24 -331.47,-406.92 -473.05,-470.02 -119.5,-53.28 -111.97,42.65 -250.92,21.5 -198.03,-30.13 -366.3,8.25 -499.74,102.05 -74.44,52.31 -317.29,236.95 -431.78,188.36z"/>
  <path class="fil15" d="M1020.72 3478.95l100.19 -0.76c-17.06,-49.28 -5.03,-418.3 -4.95,-502.49 0.1,-91.59 10.92,-443.73 -6.35,-505.64l-55.84 -1.72c-0.57,0.17 -16.68,6.25 -17.95,6.88l-15.11 1003.74z"/>
  <path class="fil15" d="M2872.97 3412.81c15.5,-4.5 56.49,-44.89 91.08,-62.15 -14.56,-38.68 -12.33,-783.03 -5.29,-880.53l-95.73 0.54 0.84 942.12 9.1 0.02z"/>
  <path class="fil16" d="M118.23 1432.46l-6.38 -35.67 32.27 -17.52 -0.77 -37.79c78.31,-34.83 189.17,-64.15 283.19,-98.85 59.53,-21.97 249.31,-70.29 275.51,-105.98 -13.28,-39.93 -42.38,-95.74 -62.36,-137.12 -55.36,-114.63 -4.79,-102.4 29.03,-132.61 -12.71,-2.81 -33.33,-10.49 -47.63,-3.5 -17.5,8.57 -11.94,21.46 -58.07,33.84 0.28,-3.25 1.84,-30.87 2.41,-35.04 0.43,-3.19 0.75,-5.85 1.26,-8.94 0.42,-2.55 1.08,-5.12 1.52,-7.28 0.53,-2.6 2.2,-8.59 3.73,-11.14 -18.62,-0.18 -5.98,13.71 -7.53,26.92 -4.21,35.94 -10.4,14.56 -10.4,80.08 -56.17,-58.37 14.24,39.59 -18.81,-25.67 -9.82,-19.39 -4.16,-6.84 -7.87,-27.85l3.14 11.78c0.02,1.09 0.11,3.91 0.05,5.23 -1.41,42.27 -13.58,33.64 -3.28,90.07 32.03,0.2 25.71,1.88 44.6,8.97 -17.39,26.47 -24.39,36.02 -26.76,71.27l-26.76 -17.85 -19.8 21.37c-0.78,1.35 -2.2,3.57 -2.84,5.06 -0.67,1.56 -1.71,3.86 -2.23,5.59 -4.94,16.68 -1.9,47.98 -1.9,66.1l-71.27 -17.85c-3.11,-18.32 6.24,-22.52 -0.08,-35.67 -1.16,35.35 -16.7,69.4 -35.64,44.69 68.23,-6.93 44.89,-4.44 62.4,8.87l-13.58 11.76c-1.76,1.26 -4.43,3.7 -6.6,5.14 -45.85,30.44 -121.85,33.47 -167.83,31.49 -30.13,-1.31 -58.45,8.7 -107.44,4.71 -26.22,-2.14 -29.98,-6.17 -52.24,-6.3 -19.48,-0.13 -14.05,23.11 -26.91,-2.16l133.8 0c-22.66,36.08 -25.14,31.62 -69.4,30.13 -13.6,-0.45 -20.5,-2.37 -31.93,0.7 -13.96,3.75 -32.56,15.79 -38.38,31.53 -2,0.02 2.74,4.86 6.1,16.52 15.19,52.7 -3.96,-3.3 4.09,16.01l5.36 10.49c1.08,1.85 6.24,8.27 8.15,10.54 -12.38,27.58 -25.91,15.55 -26.72,47.56 20.55,-0.49 4.42,25.57 39.17,57.48 49.09,45.09 -32.3,-13.97 15.62,10.87z"/>
  <path class="fil16" d="M1245.83 2394.81c25.42,-4.86 47.01,-9.74 54.34,-37.28 13.94,-52.37 -23.34,-60.01 29.93,-71.14 13.7,30.27 9.04,86.98 7.69,126.66l168.69 -0.87 -14.26 -108.99 -47.64 -20.62c-0.63,-16.41 7.33,-6.52 15.69,-33.76l-58.82 -26.49 15.08 -37.22 -59.53 -24.13c15.61,-30.66 16.38,-1.1 14.78,-37.28l-58.64 -24.87c26.23,-49.47 43.7,-16.73 -57.02,-71.64l-103.64 107.14c5.17,37.4 70.51,238.8 93.35,260.47z"/>
  <path class="fil17" d="M2584.35 1726.82c9.58,18.13 126.32,107.74 146.21,119.45l49.46 -26.12c24.62,38.26 441.01,373 525.34,439.59l22.9 20.75 71.35 -64.92c-12.42,-3.64 -257.61,-204.31 -295.9,-237.3 -48.31,-41.62 -97.11,-78.39 -147.13,-120.61 -29.16,-24.61 -129.11,-89.93 -130.07,-130.83l-20.54 -18.27c-18.7,32.57 -50.2,79.51 -75.41,94.13 -41.3,-18.1 -84.79,-70.16 -121.32,-89.4 -0.17,0.05 -20.81,10.76 -24.9,13.54z"/>
  <path class="fil9" d="M1027.27 2413.79l9.06 0.49 -0.02 -33.86c34.22,-3.91 32.86,3.4 53.53,24.82l83.36 5.74 -72.16 -237.04c-38.88,-51.53 21.05,-93.82 56.37,-129.07 22.49,-22.44 84,-79.77 90.27,-103.64 -89.1,-43.53 -56.96,-20.59 -53.06,-38 0.33,-1.46 5.97,-4.9 12.79,-23.94l-59.46 -24.26c4.67,-17.29 10.83,-11.11 16.97,-36.19l-108.23 6.58 -5.44 -39.36c-9.89,-26.26 10.34,-12.49 -27.16,-17.13l3.19 644.85z"/>
  <path class="fil15" d="M1900.85 1628.79c-19.6,44.53 -65.35,-1.6 -197.61,25.46 -67.44,13.79 -118.92,33.9 -115.98,108.22l171.81 -1.17 438.34 1.02 149.08 1.19c-20.51,-25.64 -157.2,-138.76 -188.44,-155.74l-66.27 0.86 92.47 91.3 -238.4 -8.14c-1.78,-43.96 -6.56,-39.9 -45,-63z"/>
  <path class="fil18" d="M1022.31 1547.06l26.74 206.37 -24.96 15.51c37.5,4.64 17.27,-9.13 27.16,17.13 42.53,-3.65 100.36,-7.61 133.88,-24.08 10.63,-58.96 -10.68,-115.79 -10.93,-173.19l87.58 -4.7 -0.55 -66.34 336.28 -3.59c-13.55,-37.47 -40.45,-78.45 -49.44,-119.98l-392.06 122.62c-29.78,12.99 -19.65,10.44 -58.64,15.95 -27.96,3.96 -51.36,7.8 -75.03,14.31z"/>
  <path class="fil9" d="M1526.51 1130.34c23.14,66.33 79.23,123.65 48.11,193.89l14.51 50.64c13.88,35.8 46.46,120.26 71.01,148.72 37.72,-5.11 45.64,-25.51 68.78,-49.05 21.16,-21.52 36.35,-32.13 53.98,-57.83 -4.16,-37.3 -94.42,-302.49 -113.84,-330.69 -48.54,6.54 -100.33,36.18 -142.56,44.33z"/>
  <path class="fil4" d="M1053.78 2468.32l55.84 1.72 990.39 -0.11c13.29,-16.47 32.23,-34.46 41.77,-56.3l-44.58 0.13 -453.15 -2.82 -103.04 1.58 -34.52 -0.33 -168.69 0.87 -230.78 1.88c-82.78,-2.13 -66.42,0.34 -83.68,16.61 4.3,40.82 -8.11,25.37 30.45,36.77z"/>
  <path class="fil19" d="M3812.6 1730.7c5.59,49.05 22.02,81.2 21.68,138.77 -0.3,49.94 -10.68,104.62 -10.85,150.1l8.29 -10.94c0.84,-1.41 56.4,-102.67 41.69,-282.09 -5.82,-70.99 -49.53,-217.43 -81.23,-252.23 -15.57,-2.76 -22.34,-15.87 -31.56,-27.82 -68.18,-88.41 -65.97,-93.66 -148.22,-182.05l-144.73 -122.8c-80.89,-53.57 -179.4,-138.96 -270.84,-92.69 13.4,17.62 37.92,21.16 57.08,29.02 127,52.1 242.67,133.24 337.64,234.06 80.13,85.05 224.81,297.75 221.05,418.68z"/>
  <path class="fil20" d="M1321.23 932.21l72.18 -18.5c15.64,25.52 45.23,115.76 54.1,152.73 13.2,25.67 16.96,32.65 14.46,58.96 7.28,7.9 5.77,4.92 12.99,18.16 4.47,8.2 7.48,15.85 11.26,26.48 6.77,18.97 9.56,27.91 13.14,45.86l34.64 98.6c-25.31,19.75 -13.81,5.62 -36.36,17.81 -35.89,19.38 -18.23,-7.67 -26.32,28.05 41.67,-1.72 75.24,-19.75 103.29,-36.14 31.12,-70.24 -24.97,-127.55 -48.11,-193.89l-28.5 -62.91 -35.14 -106.51c-26.98,-58.88 -8.51,17.82 -58.72,-93.44 -10.76,-23.84 -21.36,-45.05 -31.09,-66.75 -19.46,-43.43 -41.87,-90.51 -61.54,-134.88 -26.38,-59.49 -29.06,-96.53 -94.67,-109.57 -39.21,82.81 -1.87,113.3 31.57,190.47 17.73,40.95 77.87,148.05 72.81,185.47z"/>
  <path class="fil3" d="M668.73 866.91c-33.82,30.21 -84.38,17.98 -29.03,132.61 19.98,41.38 49.08,97.19 62.36,137.12 37.99,2.19 42.06,2.38 66.63,-13.77 -86.79,-226.72 -120.01,-168.04 184.67,-262.22 51.8,-16 214.42,-69.86 258.95,-61.52l-40.69 -90.71c-17.65,38.38 -66.27,41.64 -110.47,54.19 -44.65,12.67 -87.62,23.89 -132.67,36.69 -56.81,16.14 -211.41,68.35 -259.76,67.61z"/>
  <path class="fil11" d="M1296.89 1785.63l17.7 -36.84c34,-3.26 113.61,-28.86 139.09,-3.46 11.86,-9.09 3.79,-2.83 13.99,-14.61l87.56 -91.13c30.01,-30.88 69.87,-72.05 99.73,-98.3 -46.57,-9.85 -337.44,-13.7 -363.69,1.63 -8.42,10.64 -7.14,4.31 -7.35,27.06 -0.42,46.34 40.89,183.85 12.97,215.65z"/>
  <path class="fil21" d="M2141.78 2413.63c-9.54,21.84 -28.49,39.83 -41.77,56.3 -31.6,47.8 -50.4,82.9 -74.68,139.59 -14.57,34.04 -44.64,134.9 -66.4,155.84l-20.7 109.36 76.85 9.48 20.75 2.34c27.79,-19.19 32.89,-93.86 42.46,-125.66 13.98,-46.53 28.71,-90.07 45.57,-132.76 26.25,-66.46 97.73,-188.52 140.81,-216.89 -38.47,-34.61 -90.1,-13.94 -122.88,2.4z"/>
  <path class="fil22" d="M1051.25 1786.07l5.44 39.36 108.23 -6.58c-6.14,25.07 -12.3,18.9 -16.97,36.19l59.46 24.26c-6.82,19.04 -12.46,22.48 -12.79,23.94 -3.91,17.41 -36.04,-5.53 53.06,38 33.43,-20.37 72.01,-65.34 107.73,-99.85 32.1,-31.01 63.69,-68.7 98.27,-96.06 -25.48,-25.4 -105.09,0.19 -139.09,3.46l-17.7 36.84c-22.36,-33.34 -23.94,-154.58 -35.12,-201.52l-87.58 4.7c0.25,57.4 21.57,114.23 10.93,173.19 -33.51,16.47 -91.34,20.44 -133.88,24.08z"/>
  <path class="fil23" d="M813.21 1039.97l13.41 35.28c2.05,1.6 5.02,1.58 6.15,4.79l12.56 7.87c30.63,11.6 35.39,-0.43 94.04,-20.62 40.03,-13.76 73.29,-25.85 111.45,-38.78l228.55 -90.22 -31.1 -65.54c-50.5,-22.66 -181.87,30.31 -242.01,47.08 -41.71,11.64 -78.78,22.23 -119.3,33.74 -60.32,17.13 -82.38,14.18 -73.76,86.4z"/>
  <path class="fil24" d="M3090.53 3333.49l44.81 9.72 2.29 -921.76 -12.81 -1.38 -37.44 -6.66c-12.13,33.28 -9,866.44 3.16,920.08z"/>
  <path class="fil20" d="M2452.08 2320.42c27.56,3.95 31.56,10.86 53.34,32.95 17.92,18.18 28.93,29.47 36.88,58.34l216.45 -1.22 82.45 -20.79 15.03 -71.49 -397.45 -82.59 -6.71 84.8z"/>
  <path class="fil25" d="M1823.37 3626.85c39.76,-10.49 185.13,-7.68 219.73,1.81l-1.29 45.2 -222.9 -1.53 4.47 -45.48zm253.11 93.15c4.59,0.48 36.82,1.97 38.07,2.28 25.03,6.09 10.36,3.33 24.29,13.75 18.51,13.84 -25.09,21.49 47.59,17.88 13.31,-25.58 7.71,-44.04 7.83,-80.1l-0.46 -37.71 -0.41 -90.85 -42.68 3.61 -14.59 55.18c-53.21,1.09 -178.8,-35.46 -338.64,-13.32l-2.28 135.38c89.93,12.28 201.4,-21.62 281.29,-6.09z"/>
  <path class="fil25" d="M732.18 3599.76l214.96 32.03 -4.18 40.96c-35.16,10.33 -65.74,-1.49 -106.31,-8.47 -37.11,-6.39 -80.78,-11.52 -110.55,-21.65l6.08 -42.88zm-38.35 97.65c32.91,16.46 271.21,39 324.07,41.49 23.13,39.63 -11.27,37.17 48.77,47.05l20.71 -76.35 14.81 -77.1 2.1 -54.04 -41.79 -4.46 -6.95 26.47 -12.84 24.72 -59.38 -7.33c18.41,16.99 10.25,5.24 -3.43,-3.46l-109.44 -28.38c-38.94,-7.03 -126.88,-14.49 -149.23,-38.14l-27.39 149.52z"/>
  <path class="fil26" d="M1548.05 1394.19c9,41.53 35.89,82.5 49.44,119.98l-336.28 3.59 0.55 66.34c11.18,46.95 12.76,168.18 35.12,201.52 27.92,-31.8 -13.38,-169.31 -12.97,-215.65 0.21,-22.75 -1.07,-16.43 7.35,-27.06 26.25,-15.33 317.12,-11.48 363.69,-1.63 -29.86,26.25 -69.72,67.43 -99.73,98.3l-87.56 91.13c-10.21,11.78 -2.14,5.52 -13.99,14.61 -34.58,27.37 -66.17,65.05 -98.27,96.06 -35.72,34.51 -74.3,79.47 -107.73,99.85 -6.27,23.87 -67.77,81.2 -90.27,103.64 -35.32,35.25 -95.25,77.54 -56.37,129.07 4.21,-68.9 47.91,-86.4 81.69,-121.77 35.77,-37.44 70,-71.52 106.71,-107.03 30.62,-29.6 189.3,-175.75 201.26,-206.43 17.46,-19.17 24.97,-24.96 41.74,-41.74l199.48 -201.26c14.96,-15.85 75.01,-63.06 50.97,-79.01 -17.64,25.7 -32.82,36.31 -53.98,57.83 -23.14,23.54 -31.06,43.94 -68.78,49.05 -24.55,-28.47 -57.13,-112.92 -71.01,-148.72l-41.09 19.32z"/>
  <path class="fil26" d="M2429.67 2293.84l1.02 12.52c2.35,1.82 5.98,3.99 7.62,5.06 1.37,0.91 4.83,3.14 6.27,4.08 1.72,1.13 5.07,3.19 7.5,4.93l6.71 -84.8c14.78,-52.12 9.58,-36.48 145.96,-8.01 54.83,11.45 129.84,32.55 183.99,35.58l-35.39 -15.99c-43.67,-12.93 -266.87,-44.15 -277.63,-70.21 36.73,11.69 86.13,19.89 126.04,27.58 100.47,19.32 98.67,17.89 107.79,-22.34l-9.12 42.92 154.89 33.03 -20.87 21.07 37.69 9.55c-5.02,-52.63 3.78,-60.49 10.93,-105.99 -63.2,-5.06 -147.91,-29.23 -207.68,-41.86 -33.29,-7.04 -180.23,-26.15 -189.09,-57.27 19.39,-28.09 -5.74,-10.5 32.45,-19.9l-22.09 -15.8 1.42 -25.54c-22.23,12.75 -4.05,11.29 -36.81,-1.87 9.83,64.18 -17.92,210.03 -31.59,273.29z"/>
  <path class="fil27" d="M2091.27 2406.44l5.92 7.32 44.58 -0.13c32.78,-16.34 84.4,-37.01 122.88,-2.4l36.91 1.08 -4.51 -22.28 44.8 0.8 -0.65 21.6 96.78 0.44 -24.25 -16.99c-3.64,-85.15 -0.71,-81.64 16.97,-89.51l-1.02 -12.52c-2.57,-33.93 -1.32,-34.6 -11.36,-58.48 -40.2,32.36 -3.46,-6.41 -20.89,26.76 -11.87,22.58 -1.9,75.26 -58.38,94.88 -71.32,24.79 -177.61,-72.01 -45.62,-148.4 -45.61,6.3 -29.69,-3.2 -49.99,26.73 -25.98,38.33 20.93,-15.99 -15.4,25.63 -32.57,37.31 27.68,-3.7 -23.72,18.9 -39.75,-65.63 -10.15,-98.23 -6.53,-126.88 0.32,-2.45 -0.02,-5.93 0.11,-7.94l-2.55 -16.72c-29,-4.76 -21.08,7.51 -62.37,3.58 -1.8,40.48 -14.38,90.16 -21.92,132.84 -7.59,43.05 -22.44,102.66 -19.8,141.7z"/>
  <path class="fil28" d="M3327.75 2713.73l94.08 -36.2c10.24,-1.53 14.65,1.23 16.35,1.64 6.82,25.53 14.38,12.68 -12.52,27.55 -4.32,2.38 -33.63,12.07 -39.69,14.59 -42.49,17.71 -44.16,31.5 -58.22,-7.59zm-16.84 -32.4c6.98,-24.6 -20.3,-6.74 51.94,-36.9 25.29,-10.56 37.92,-22.84 59.6,-7.71 -7.51,27.54 -20.79,22.77 -50.21,35.11 -77.55,32.53 -52.26,14.97 -61.33,9.5zm-22.77 -55.31c1.08,-1.15 91.01,-66.1 117.88,-34.1 -18.43,24.38 -29.71,22.03 -60.85,35.39 -35.94,15.41 -40.66,27.83 -57.03,-1.28zm-9.67 -28.73l-10.73 -22.96 85.48 -38.4c31.74,-8.91 16.12,-3.74 29.02,2.68 -4.68,19.11 12.21,13.67 -45.02,35.94 -20.28,7.9 -38.52,16.11 -58.75,22.74zm-153.67 -177.21l12.81 1.38 1.46 8.61c119.68,59.24 105.34,233.73 189.13,333.76 38.8,0.24 44.5,-7.83 78.2,-21.76 120.86,-49.96 33.76,-52.1 -5.24,-222.34l-37.5 -25.69c-9.55,22.02 17.27,6.54 -53.39,35.57 -3.96,1.63 -29.6,13.05 -32.09,13.64 -44.18,10.69 -10.24,6.97 -27.47,-4.06 8.28,-29.5 36.66,-34.64 98.8,-54.26l-21.33 -18.32c-26.88,10.1 -69.54,34.9 -91.01,29.38 -10.4,-29.86 -18.93,-13.85 16.78,-31.08 12.6,-6.08 32.89,-12.17 48.57,-17.62l-19.41 -17.49c-6.69,2.55 -30.75,13.79 -33.62,14.44 -51.51,11.59 -11.85,10.57 -29.15,-9.31 -11.02,-21.54 -64.63,-52.1 -90.05,-74.19 -27.41,-23.82 -75.7,-56.49 -88.42,-80.7l-25.85 33.75c23.41,36.17 80.07,65.57 108.77,106.31z"/>
  <path class="fil20" d="M2992.77 3573.33c-10.42,-87.89 119.86,-95.85 127.72,-16.27 8.77,88.87 -118.53,93.94 -127.72,16.27zm36.27 -134.57c-177.82,47 -103.6,293.58 61.73,253.1 161.34,-39.53 103.67,-296.81 -61.73,-253.1z"/>
  <path class="fil1" d="M1541.01 2403.8l52.3 -5.85 -14.3 -51.89c-37.84,-145.28 -0.52,-316.2 -35.94,-468.89l-59.14 0.24 -24.76 -0.37c-28.16,40.88 -4,46.54 2.57,126.57 11.27,137.32 14.22,121.65 52.39,270.64 6.35,24.82 23.82,123.82 26.88,129.54z"/>
  <path class="fil4" d="M2287.47 2459.39c29.82,21.79 603.12,14.87 667.31,-1.07l-1 -46.13 -195.02 -1.7 -216.45 1.22 -104.33 1.16 -96.78 -0.44 -25.01 -0.15 -15.5 26.23c-5.73,9.34 -8.19,12.51 -13.22,20.88z"/>
  <path class="fil17" d="M2311.13 1331.38l8.22 11.67c57.07,86.05 234.2,308.84 277.44,316.23l62.45 -59.88 -136.63 -137.81c-36.88,-40.88 -110.52,-113.77 -122.7,-164.04l-25.28 0.11 -63.51 33.72z"/>
  <path class="fil29" d="M1720.49 1764.51c14.76,70.59 105.5,242.1 141.77,322.04l145.41 318.12 50.97 6.8 -286.69 -642.85 425.2 3.2 0.26 -9.49 -438.34 -1.02 -38.58 3.2z"/>
  <path class="fil16" d="M2461.26 2020.55c32.77,13.16 14.58,14.62 36.81,1.87l23.99 -129.78c-26.36,-23.9 -71.81,-66.71 -120.41,-67.85l-71.73 394.22c117.35,12.08 56.55,-34.51 78.72,-74.05 12.82,-22.86 33.21,-5.62 26.13,-58.01 -4.67,-34.52 -16.47,-18.68 -2.1,-81.69l28.59 15.27z"/>
  <path class="fil13" d="M159.97 1396.25l9.34 26.02c22.95,-29.83 17.74,-30.69 60.76,-44.68l1170.67 -404.2c1.16,-3.29 4.29,-2.96 6.18,-4.74 -36.37,-36.57 -113.06,13.14 -155.55,28.05l-955.85 328.34c-47.04,15.61 -111.72,21.27 -135.56,71.21z"/>
  <path class="fil1" d="M768.69 1122.87l60.68 -15.05 -2.75 -32.57 -13.41 -35.28c-16.83,-17.9 -19.21,28.42 -17.38,-44.98 0.31,-12.17 10.33,-30.42 15.68,-36.38 13.75,-15.29 323.19,-101.62 379.73,-118.55 25.94,-7.76 23.36,7.78 41.17,-1.93l-20.11 -39c-44.54,-8.34 -207.15,45.52 -258.95,61.52 -304.68,94.17 -271.46,35.49 -184.67,262.22z"/>
  <path class="fil7" d="M2840.72 1109.63c-197.35,37.14 -195.26,200.05 6.94,153.35 178.8,-41.29 192.18,-190.82 -6.94,-153.35z"/>
  <path class="fil0 str0" d="M2035.82 2886.54c10.69,24.93 2.4,51.08 -4.17,91.02l-50.42 24.79 -20.93 -1.12 43.48 31.81c45.78,10.71 60.21,-27.8 67.1,-64.51 1.49,-7.92 3.71,-23.53 6.09,-30.64l9.92 -21.52c0.93,-1.87 2.55,-4.83 4.15,-7.04 -4.68,-36.7 9.57,-64.44 18.07,-99.01 104.7,-20.06 265.22,-6.31 360.15,11.02 -82.85,-45.63 -240.28,-28.42 -350.77,-25.85 2.96,-82.2 95.5,-256.91 153.37,-322.46 11.76,-13.32 -1.31,-2.41 15.62,-13.64 5.03,-8.38 7.49,-11.54 13.22,-20.88l15.5 -26.23 -14.62 0.04 -36.91 -1.08c-43.08,28.37 -114.56,150.43 -140.81,216.89 -16.86,42.69 -31.59,86.23 -45.57,132.76 -9.57,31.8 -14.67,106.47 -42.46,125.66z"/>
  <path class="fil3" d="M1483.92 1877.42l59.14 -0.24c35.42,152.69 -1.9,323.61 35.94,468.89l14.3 51.89 -52.3 5.85 0 8.72 103.04 -1.58 -2.08 -6.18c-14.79,-98.71 -14.7,-167.3 -16.14,-276.49 -0.73,-55.16 -9.64,-229.08 -28.11,-264.32l-49.28 -0.33 -64.51 13.8z"/>
  <path class="fil13" d="M2659.25 1599.4l-62.45 59.88 -34.08 33.64c-1.6,70.3 -6.09,5.82 21.63,33.89 4.09,-2.78 24.73,-13.49 24.9,-13.54 36.53,19.24 80.02,71.31 121.32,89.4 25.21,-14.62 56.71,-61.56 75.41,-94.13l20.54 18.27c23.51,-26.74 19.97,39.16 19.97,-44.51 -14.84,-9.59 -27.64,-17.38 -43.48,-29.07l-34.72 -27.18c-1.32,-1.22 -3.15,-3.1 -4.44,-4.37 -37.37,-36.74 -61.44,-52.95 -104.6,-22.3z"/>
  <path class="fil13" d="M3399.61 2215.56l-71.35 64.92c-3.07,4.56 -11.74,18.42 -12.29,26.14 -3.61,50.97 -9.32,18.2 10.27,31.81 26.05,-23.61 -1.34,-4.85 28.74,-17.92 28.79,18.94 99.71,85.96 133.8,89.65 18.88,-22.03 24.96,-34.92 41.85,-61.07 40.15,-62.18 43.36,-3.93 54.74,-32.34 0.93,-2.31 4.44,-0.16 6.35,-1.16 -13.67,-48.24 -14.22,-22.59 -80.76,-89.15 -31.38,-29.76 -45.24,-36.23 -92.18,-34.68l-19.15 23.81z"/>
  <path class="fil30" d="M1471.33 1360.37c-22.12,2.88 -507.3,162.17 -517.08,169.19 36.69,2.05 54.62,7.59 68.06,17.5 23.67,-6.51 47.07,-10.34 75.03,-14.31 38.99,-5.51 28.86,-2.96 58.64,-15.95l392.06 -122.62 41.09 -19.32 -14.51 -50.64c-28.05,16.39 -61.62,34.43 -103.29,36.14z"/>
  <path class="fil9" d="M1557.4 3743.76c59.55,5.31 12.48,5.51 31.21,-16.59 -32.98,-4.24 -37.37,-2.26 -63.54,-20.04 10.69,-16.44 -2.32,-1.74 14.67,-13.21 36.62,-24.73 31.36,-4.72 31.22,-50.17l-468.76 -11.24c-1.5,47.38 -15.48,33.16 93.09,51.52l362.12 59.73z"/>
  <path class="fil3" d="M2917.84 3785.12c61.59,5.92 119.03,11.08 181.56,17.35 27.12,2.73 68.81,7.07 95.09,3.68 30.23,-3.9 43.45,-20.15 68.06,-33.98 6.79,-36.09 17.58,-87.54 21.49,-136.46 4.94,-90.92 11.16,-132.21 -32.6,-196.35 -11.54,35.26 -1.13,132.26 -6.85,186 -26.78,251.34 -219.42,82.31 -407.03,112.45 -1.85,41.28 12.25,24.22 53.18,35.42 22.21,6.08 13.57,2.1 27.11,11.89z"/>
  <path class="fil11" d="M1498.01 1067.43l28.5 62.91c42.22,-8.15 94.02,-37.78 142.56,-44.33 19.42,28.2 109.68,293.39 113.84,330.69 24.04,15.95 -36.01,63.16 -50.97,79.01l-199.48 201.26c-16.77,16.78 -24.28,22.57 -41.74,41.74 35.22,-11.76 53.65,-37.03 78.39,-67.46 65.13,-80.11 183.33,-176.04 220.03,-216.83 75.62,-84.05 -78.83,-271.22 -89.6,-425.4 -68.98,-20.34 -132.76,35.42 -201.52,38.41z"/>
  <path class="fil16" d="M2883.06 2182.8c-7.15,45.51 -15.95,53.36 -10.93,105.99 1.01,39.75 0.46,19.04 -15.9,29.41l-15.03 71.49 -82.45 20.79 195.02 1.7 2.15 -246.8 -45.02 -30.01c-1.45,2.08 -2.07,5.43 -2.78,7.07 -19.62,45.52 -4.29,29.52 -25.07,40.35z"/>
  <path class="fil1" d="M2069.29 1320.39l0.28 15.49 102.86 119.33c43.81,51.58 302,307.78 356.45,317.33 -20.74,-42.86 -73.54,-74.79 -107.91,-110.76 -35.28,-36.9 -62.56,-63.48 -100.47,-104.85 -32.77,-35.75 -173.48,-194.07 -183.79,-240.75 -13.1,-36.57 -50.11,-11.27 -67.41,4.2z"/>
  <path class="fil31" d="M2193.8 3636.09l0.46 37.71 453.14 1.44c17.13,2.55 62.41,11.67 93.81,0.04 38.48,-14.28 14.26,3.37 27.34,-21.66 -19.65,-40.48 -89.36,-21.74 -119.61,-17.79l-455.13 0.26z"/>
  <path class="fil20" d="M1608.69 3587.91l16.98 3.61c8.36,97.99 21.73,118.49 142.34,99.48l-0.77 43 29.03 0.58 -0.42 -169.8c-33.53,-0.07 -66.76,-0.96 -100.28,-1.89 -46.82,-1.31 -67.22,-9 -86.88,25.03z"/>
  <path class="fil20" d="M529.88 3534.19l24.05 0.7c-6.38,53.15 -14.33,92.14 38,108.17 17.59,5.39 137.02,13.72 58.51,43.83 1.97,1.25 4.48,1.19 5.83,3.87 1.48,2.92 4.86,2.78 6.91,3.22 17.05,3.58 10.77,2.78 30.66,3.44l27.39 -149.52 -0.83 -9.15c-30.62,-8.69 -61.29,-13.7 -93.57,-20.1 -43,-8.53 -74.73,-21.96 -96.94,15.55z"/>
  <path class="fil18" d="M1087.38 3709.6c144.41,10.82 416.66,90.68 537.22,66.95 -26.08,-19.38 -13.5,-2.78 -54.54,-24.27 -1.55,-0.82 -5.2,-0.98 -6.32,-4.12 -1.14,-3.22 -4.32,-2.81 -6.33,-4.41l-362.12 -59.73c-108.57,-18.36 -94.59,-4.14 -93.09,-51.52l-14.81 77.1z"/>
  <path class="fil27" d="M2883.06 2182.8c20.78,-10.83 5.45,5.17 25.07,-40.35 0.72,-1.64 1.34,-4.99 2.78,-7.07l-14.02 -3.09c-2.22,-0.38 -4.91,-0.9 -7.43,-1.29 -2.63,-0.39 -5.02,-0.64 -7.82,-1.02 -88.12,-11.86 -132.5,-29.15 -203.48,-39.39l-70.03 -15.82 -9.4 -0.66 -10.48 0.61 -69.51 -10.93c-38.19,9.4 -13.07,-8.19 -32.45,19.9 8.86,31.11 155.8,50.23 189.09,57.27 59.77,12.63 144.48,36.8 207.68,41.86z"/>
  <path class="fil32" d="M1171.62 708.42l40.69 90.71 20.11 39 15.86 34.62 31.1 65.54c14.35,7.11 24.4,6.24 41.85,-6.08 5.06,-37.42 -55.08,-144.51 -72.81,-185.47 -33.44,-77.17 -70.78,-107.66 -31.57,-190.47 -98.68,15.96 -67.34,82.21 -45.23,152.14z"/>
  <path class="fil31" d="M2458.79 2235.61l397.45 82.59c16.35,-10.37 16.9,10.34 15.9,-29.41l-37.69 -9.55 20.87 -21.07 -154.89 -33.03 9.12 -42.92c-9.12,40.23 -7.32,41.66 -107.79,22.34 -39.91,-7.68 -89.31,-15.89 -126.04,-27.58 10.76,26.06 233.96,57.28 277.63,70.21l35.39 15.99c-54.15,-3.03 -129.15,-24.13 -183.99,-35.58 -136.38,-28.47 -131.18,-44.11 -145.96,8.01z"/>
  <path class="fil33" d="M1900.85 1628.79c38.44,23.1 43.22,19.04 45,63l238.4 8.14 -92.47 -91.3 -181.87 1.47c-10.34,13.32 -7.39,-3.85 -9.06,18.69z"/>
  <path class="fil34" d="M1986.5 3954.21l1.07 -31.46c-29.14,-16.2 -63.47,-33.65 -106.23,-42.09 -11.75,-2.32 -113.6,-13.23 -114.19,-21.94 -26.33,-21.28 -32.13,-22.16 -44.51,44.65 53.31,37.93 190.2,67.16 263.87,50.83z"/>
  <path class="fil35" d="M1492.23 2303.2l14.26 108.99 34.52 0.33 0 -8.72c-3.06,-5.72 -20.53,-104.72 -26.88,-129.54 -38.17,-148.99 -41.12,-133.32 -52.39,-270.64 -6.57,-80.04 -30.73,-85.7 -2.57,-126.57l-43.27 5.1c7.39,67.6 13.42,149.73 28.05,214.43 15.67,69.39 37.45,135.31 48.28,206.62z"/>
  <polygon class="fil20" points="118.23,1432.46 202.5,1666.43 249.62,1673.3 246.14,1648.9 215.97,1557.43 195.6,1496.77 169.31,1422.28 159.97,1396.25 144.13,1379.26 111.86,1396.78 "/>
  <path class="fil36" d="M2992.77 3573.33c9.19,77.67 136.49,72.59 127.72,-16.27 -7.86,-79.58 -138.14,-71.61 -127.72,16.27z"/>
  <path class="fil7" d="M813.21 1039.97c-8.62,-72.22 13.43,-69.27 73.76,-86.4 40.52,-11.51 77.6,-22.09 119.3,-33.74 60.14,-16.77 191.51,-69.75 242.01,-47.08l-15.86 -34.62c-17.82,9.71 -15.23,-5.83 -41.17,1.93 -56.54,16.93 -365.98,103.26 -379.73,118.55 -5.35,5.96 -15.37,24.22 -15.68,36.38 -1.83,73.4 0.55,27.08 17.38,44.98z"/>
  <path class="fil32" d="M1621.35 3738.19l3.16 -3.96 142.73 -0.24 0.77 -43c-120.61,19.01 -133.98,-1.49 -142.34,-99.48l-16.98 -3.61c-27.27,11.69 -26.14,36.58 -23.25,74.97 4.23,56.34 13.76,38.6 35.91,75.31z"/>
  <path class="fil37" d="M3041.89 2280.01c12.72,24.21 61.01,56.88 88.42,80.7 25.42,22.09 79.02,52.65 90.05,74.19 5.78,-3.7 -0.42,1.28 13.21,-9.1 8.22,-6.28 10.54,-9.01 20.45,-16.1 -9.43,-26.81 -58.37,-57.4 -84.01,-78.6 -30.89,-25.56 -55.43,-46.1 -88.03,-72.97l-30.63 -0.12c-13.1,29.1 3.34,0.02 -9.45,22z"/>
  <path class="fil38" d="M1823.37 3626.85l-4.47 45.48 222.9 1.53 1.29 -45.2c-34.6,-9.49 -179.97,-12.3 -219.73,-1.81z"/>
  <path class="fil32" d="M500.82 3633.84l3.7 21.9c31.57,18.01 90.84,41.22 145.92,31.15 78.51,-30.11 -40.92,-38.44 -58.51,-43.83 -52.33,-16.02 -44.37,-55.01 -38,-108.17l-24.05 -0.7c-20.25,8.62 -16.97,2.4 -24.14,33.6 -4.93,21.45 -4.41,44.29 -4.92,66.06z"/>
  <path class="fil38" d="M836.65 3664.28c40.56,6.97 71.15,18.79 106.31,8.47l4.18 -40.96 -214.96 -32.03 -6.08 42.88c29.77,10.13 73.44,15.26 110.55,21.65z"/>
  <path class="fil36" d="M2588.25 2074.7l10.48 -0.61c-0.49,-46.03 13.82,-73.53 17.21,-126.68 -22.56,-13.1 -45.04,-26.33 -66.44,-39.16 -2.88,27.83 -10.49,32.71 -16.43,67.63 -4.83,28.47 -11.1,46.66 -17.9,73.54 16.49,0.07 27.27,0.12 45.51,6.18 24.79,8.24 14.77,3.76 27.57,19.1z"/>
  <path class="fil39" d="M1795.85 3564.77l0.42 169.8 247.95 -2.52c43.92,-5.92 19.5,-0.81 32.27,-12.06 -79.89,-15.53 -191.36,18.37 -281.29,6.09l2.28 -135.38c159.84,-22.14 285.43,14.41 338.64,13.32l14.59 -55.18 -26.72 28.21 -328.14 -12.29z"/>
  <path class="fil40" d="M2437.98 2412.86l104.33 -1.16c-7.95,-28.87 -18.96,-40.15 -36.88,-58.34 -21.78,-22.09 -25.78,-29 -53.34,-32.95 -2.43,-1.74 -5.79,-3.79 -7.5,-4.93 -1.43,-0.93 -4.9,-3.17 -6.27,-4.08 -1.64,-1.07 -5.27,-3.23 -7.62,-5.06 -17.68,7.87 -20.61,4.37 -16.97,89.51l24.25 16.99z"/>
  <path class="fil27" d="M2813.03 3763.76l0.48 -61.14 -20.48 33.54 -275.67 -26.19c-4.53,29.13 -11.04,39.62 -0.89,59.75 35.76,-13.67 3.93,9.8 26.81,-33.21l269.74 27.25z"/>
  <path class="fil27" d="M2400.32 3761.11c-24.35,65.19 -178.29,61.4 -208.37,135.07 48.96,-1.28 88.28,-28.62 132.19,-49.97 113.72,-55.29 88.28,-64.47 97.06,-25.77 25.44,-15.83 27,26.32 16.06,-32.99l-0.02 1.77 -36.93 -28.11z"/>
  <path class="fil12" d="M1415.9 1882.15l43.27 -5.1 24.76 0.37 64.51 -13.8 16.38 -29.71c-9.21,-21.75 -27.86,-37.67 -47.38,-48.73 -23.37,7.66 -32.98,25.17 -50.72,42.65 -56.2,55.33 -33.16,7.29 -50.81,54.33z"/>
  <path class="fil41" d="M1960.29 3001.24l20.93 1.12 -26.41 -26.67c1.7,-1.18 4.52,-4.76 5.32,-3.16l37.82 -24.66c16.65,-18.6 14.64,-35.81 17.1,-63.67l-76.85 -9.48c-24.63,58.91 -20.56,93.78 22.07,126.51z"/>
  <path class="fil39" d="M1055.55 3600.48c-42.18,1.41 -116.96,-22.08 -170.83,-30.74 -56.96,-9.15 -98.32,-27.41 -164.32,-31l0.83 9.15c22.36,23.66 110.3,31.12 149.23,38.14l109.44 28.38c13.67,8.7 21.84,20.45 3.43,3.46l59.38 7.33 12.84 -24.72z"/>
  <path class="fil1" d="M2608.13 2074.76l70.03 15.82 15.56 -87.19c-13.87,-12.95 -14.19,-15.38 -29.65,-23.34 -22.08,-11.35 -28.71,-5.83 -34.92,-4.23l-21.03 98.93z"/>
  <path class="fil15" d="M738.39 1691.15c-3.12,81.01 28.68,81.41 101.31,67.47l-4.06 -58.38c-39.36,-1.24 -57.08,-10.55 -76.44,-22.86 -3.89,25.63 2.43,1.45 -20.82,13.77z"/>
  <path class="fil42" d="M1245.83 2394.81c-2.3,1.88 -6.48,6.1 -7.6,7.23 -0.84,0.84 -3.84,6.45 -4.49,4.9 -0.72,-1.72 -3.19,3.72 -4.83,5.52l108.88 0.6c1.35,-39.68 6.01,-96.39 -7.69,-126.66 -53.27,11.13 -15.99,18.77 -29.93,71.14 -7.33,27.54 -28.92,32.41 -54.34,37.28z"/>
  <path class="fil43" d="M738.39 1691.15c23.25,-12.32 16.93,11.86 20.82,-13.77 19.35,12.31 37.08,21.62 76.44,22.86l4.06 58.38c20.77,-10.89 3.28,-86.37 3.82,-114.76 -39.23,-8.87 -61.73,-10.41 -80.75,22.1l-18.59 -35.48c-1.02,-2.09 -2.18,-5.47 -3.78,-7.91l-2.02 68.58z"/>
  <path class="fil7" d="M2498.07 2022.42l-1.42 25.54 22.09 15.8 69.51 10.93c-12.8,-15.34 -2.78,-10.86 -27.57,-19.1 -18.24,-6.06 -29.01,-6.11 -45.51,-6.18 6.8,-26.88 13.07,-45.07 17.9,-73.54 5.94,-34.92 13.54,-39.8 16.43,-67.63l-27.44 -15.61 -23.99 129.78z"/>
  <path class="fil31" d="M1643.88 3886.94c-25.15,15.94 9.09,6.15 -20.33,33.09 -36.29,33.22 -86.36,43.22 -111.03,94.82 50.31,-8.19 96.43,-54.21 140.31,-81.67 12.29,-7.7 3.99,16.89 13.23,-10.16 1.39,-4.05 4.59,-4.11 6.74,-6.29 -29.86,-15.95 -15.5,-4.92 -28.92,-29.79z"/>
  <path class="fil37" d="M1981.23 3002.36l50.42 -24.79c6.57,-39.94 14.87,-66.09 4.17,-91.02l-20.75 -2.34c-2.46,27.86 -0.45,45.06 -17.1,63.67l-37.82 24.66c-0.8,-1.6 -3.62,1.98 -5.32,3.16l26.41 26.67z"/>
  <path class="fil40" d="M3288.14 2626.01c16.37,29.11 21.09,16.7 57.03,1.28 31.14,-13.35 42.42,-11.01 60.85,-35.39 -26.88,-32 -116.8,32.95 -117.88,34.1z"/>
  <path class="fil6" d="M3363.67 2494.03l-14.15 -9.12c-62.14,19.62 -90.52,24.76 -98.8,54.26 17.24,11.03 -16.71,14.75 27.47,4.06 2.48,-0.6 28.12,-12.02 32.09,-13.64 70.67,-29.02 43.84,-13.55 53.39,-35.57z"/>
  <path class="fil44" d="M3310.91 2681.33c9.07,5.47 -16.22,23.04 61.33,-9.5 29.42,-12.35 42.7,-7.57 50.21,-35.11 -21.68,-15.13 -34.31,-2.85 -59.6,7.71 -72.25,30.16 -44.96,12.29 -51.94,36.9z"/>
  <path class="fil29" d="M2294.99 2324.23c23.83,6.39 80.54,2.35 59.11,-41.36 -14.11,-28.77 -66.61,-30.29 -59.11,41.36z"/>
  <path class="fil6" d="M3327.75 2713.73c14.05,39.09 15.73,25.29 58.22,7.59 6.06,-2.53 35.37,-12.21 39.69,-14.59 26.91,-14.87 19.34,-2.01 12.52,-27.55 -1.7,-0.42 -6.12,-3.17 -16.35,-1.64l-94.08 36.2z"/>
  <path class="fil6" d="M3278.48 2597.28c20.24,-6.62 38.47,-14.84 58.75,-22.74 57.23,-22.27 40.34,-16.83 45.02,-35.94 -12.9,-6.42 2.72,-11.59 -29.02,-2.68l-85.48 38.4 10.73 22.96z"/>
  <path class="fil7" d="M2069.57 1335.88l-0.28 -15.49c-49.87,10.39 -82.14,-15.3 -103.17,10.61 54.7,8.41 -7.88,22.3 86.47,33.8l-4.73 -28.85 21.72 -0.07z"/>
  <path class="fil32" d="M259.12 1723.84c8.65,-18.59 6.47,-25.81 -9.5,-50.54l-47.12 -6.87 19.12 63.95 37.5 -6.54z"/>
  <path class="fil40" d="M3328.19 2466.59c-12.02,-19.31 0.2,-11.23 -25.66,-19.32 -15.68,5.45 -35.97,11.54 -48.57,17.62 -35.71,17.23 -27.18,1.22 -16.78,31.08 21.47,5.52 64.13,-19.28 91.01,-29.38z"/>
  <path class="fil35" d="M1036.33 2414.28l53.51 0.5 0 -9.54c-20.67,-21.42 -19.31,-28.73 -53.53,-24.82l0.02 33.86z"/>
  <path class="fil45" d="M3220.36 2434.91c17.3,19.88 -22.36,20.9 29.15,9.31 2.87,-0.64 26.93,-11.89 33.62,-14.44l-5.67 -17.99 -23.45 -2.09c-9.91,7.09 -12.22,9.82 -20.45,16.1 -13.63,10.39 -7.43,5.41 -13.21,9.1z"/>
  <polygon class="fil46" points="2301.56,2412.31 2316.19,2412.27 2341.2,2412.42 2341.85,2390.83 2297.05,2390.03 "/>
  <path class="fil47 str1" d="M1496.91 276.11l-788.51 0c-42.02,0 -76.39,-36.63 -76.39,-81.41l0 -98.24c0,-44.78 34.37,-81.4 76.39,-81.4l788.51 0m993.95 0l801.64 0c42.02,0 76.39,36.63 76.39,81.4l0 98.24c0,44.78 -34.37,81.41 -76.39,81.41l-801.64 0"/>
  <path class="fil48" d="M817.72 208.63c31.57,0 46.54,-15.79 46.54,-34.23 0,-42.21 -68.24,-26.26 -68.24,-50.76 0,-8.74 7.24,-15.65 24.99,-15.65 10.03,0 21.38,2.96 31.74,9.04l6.74 -16.61c-10.03,-6.58 -24.5,-10.2 -38.31,-10.2 -31.57,0 -46.37,15.79 -46.37,34.4 0,42.7 68.4,26.45 68.4,51.28 0,8.55 -7.56,14.96 -25.49,14.96 -14.14,0 -28.78,-5.26 -37.99,-12.66l-7.4 16.61c9.54,8.22 27.46,13.81 45.39,13.81z"/>
  <polygon id="1" class="fil48" points="906.85,189.06 906.85,157.32 962.43,157.32 962.43,139.72 906.85,139.72 906.85,109.8 969.5,109.8 969.5,91.87 885.47,91.87 885.47,206.98 971.8,206.98 971.8,189.06 "/>
  <path id="2" class="fil48" d="M1048.43 208.63c18.91,0 35.03,-6.74 45.72,-19.24l-13.81 -13.16c-8.39,9.21 -18.75,13.65 -30.75,13.65 -23.85,0 -41.11,-16.77 -41.11,-40.45 0,-23.68 17.26,-40.45 41.11,-40.45 12,0 22.36,4.44 30.75,13.49l13.81 -12.99c-10.69,-12.5 -26.81,-19.24 -45.55,-19.24 -35.35,0 -61.67,24.84 -61.67,59.2 0,34.37 26.31,59.2 61.5,59.2z"/>
  <path id="3" class="fil48" d="M1165.51 208.63c18.91,0 35.03,-6.74 45.72,-19.24l-13.81 -13.16c-8.39,9.21 -18.75,13.65 -30.75,13.65 -23.85,0 -41.11,-16.77 -41.11,-40.45 0,-23.68 17.26,-40.45 41.11,-40.45 12,0 22.36,4.44 30.75,13.49l13.81 -12.99c-10.69,-12.5 -26.81,-19.24 -45.55,-19.24 -35.35,0 -61.67,24.84 -61.67,59.2 0,34.37 26.31,59.2 61.5,59.2z"/>
  <polygon id="4" class="fil48" points="1231.79,206.98 1253.17,206.98 1253.17,91.87 1231.79,91.87 "/>
  <path id="5" class="fil48" d="M1324.21 82.5l17.76 0 28.61 -22.53 -24.17 0 -22.2 22.53zm13.81 126.13c35.69,0 62,-24.99 62,-59.2 0,-34.2 -26.31,-59.2 -62,-59.2 -35.68,0 -61.99,25.16 -61.99,59.2 0,34.04 26.31,59.2 61.99,59.2zm0 -18.74c-23.19,0 -40.45,-16.94 -40.45,-40.45 0,-23.52 17.26,-40.45 40.45,-40.45 23.19,0 40.45,16.94 40.45,40.45 0,23.51 -17.27,40.45 -40.45,40.45z"/>
  <polygon id="6" class="fil48" points="1503.78,91.87 1503.78,169.81 1440.31,91.87 1422.71,91.87 1422.71,206.98 1443.93,206.98 1443.93,129.03 1507.4,206.98 1524.99,206.98 1524.99,91.87 "/>
  <polygon id="7" class="fil48" points="1622.68,189.06 1622.68,157.32 1678.26,157.32 1678.26,139.72 1622.68,139.72 1622.68,109.8 1685.33,109.8 1685.33,91.87 1601.3,91.87 1601.3,206.98 1687.63,206.98 1687.63,189.06 "/>
  <polygon id="8" class="fil48" points="1792.55,91.87 1792.55,169.81 1729.07,91.87 1711.47,91.87 1711.47,206.98 1732.69,206.98 1732.69,129.03 1796.16,206.98 1813.76,206.98 1813.76,91.87 "/>
  <path id="9" class="fil48" d="M1943.34 208.63c18.91,0 35.03,-6.74 45.72,-19.24l-13.81 -13.16c-8.39,9.21 -18.75,13.65 -30.75,13.65 -23.85,0 -41.11,-16.77 -41.11,-40.45 0,-23.68 17.26,-40.45 41.11,-40.45 12,0 22.36,4.44 30.75,13.49l13.81 -12.99c-10.69,-12.5 -26.81,-19.24 -45.55,-19.24 -35.35,0 -61.67,24.84 -61.67,59.2 0,34.37 26.31,59.2 61.5,59.2z"/>
  <path id="10" class="fil48" d="M2060.92 208.63c35.69,0 62,-24.99 62,-59.2 0,-34.2 -26.31,-59.2 -62,-59.2 -35.68,0 -61.99,25.16 -61.99,59.2 0,34.04 26.31,59.2 61.99,59.2zm0 -18.74c-23.19,0 -40.45,-16.94 -40.45,-40.45 0,-23.52 17.26,-40.45 40.45,-40.45 23.19,0 40.45,16.94 40.45,40.45 0,23.51 -17.27,40.45 -40.45,40.45z"/>
  <polygon id="11" class="fil48" points="2226.68,91.87 2226.68,169.81 2163.21,91.87 2145.61,91.87 2145.61,206.98 2166.82,206.98 2166.82,129.03 2230.3,206.98 2247.89,206.98 2247.89,91.87 "/>
  <path id="12" class="fil48" d="M2314.49 208.63c31.57,0 46.54,-15.79 46.54,-34.23 0,-42.21 -68.24,-26.26 -68.24,-50.76 0,-8.74 7.24,-15.65 24.99,-15.65 10.03,0 21.38,2.96 31.74,9.04l6.74 -16.61c-10.03,-6.58 -24.5,-10.2 -38.31,-10.2 -31.57,0 -46.37,15.79 -46.37,34.4 0,42.7 68.4,26.45 68.4,51.28 0,8.55 -7.56,14.96 -25.49,14.96 -14.14,0 -28.78,-5.26 -37.99,-12.66l-7.4 16.61c9.54,8.22 27.46,13.81 45.39,13.81z"/>
  <polygon id="13" class="fil48" points="2403.95,206.98 2425.33,206.98 2425.33,109.96 2463.48,109.96 2463.48,91.87 2365.8,91.87 2365.8,109.96 2403.95,109.96 "/>
  <path id="14" class="fil48" d="M2577.93 206.98l-26.47 -37.82c15.62,-6.08 24.5,-18.91 24.5,-36.34 0,-25.49 -18.74,-40.94 -49,-40.94l-47.36 0 0 115.11 21.38 0 0 -33.55 25.98 0c1.48,0 2.96,0 4.44,-0.16l23.51 33.71 23.02 0zm-23.52 -74.17c0,14.47 -9.7,23.02 -28.45,23.02l-24.99 0 0 -45.88 24.99 0c18.75,0 28.45,8.39 28.45,22.86z"/>
  <path id="15" class="fil48" d="M2649.3 208.63c31.41,0 50.32,-18.26 50.32,-51.8l0 -64.95 -21.05 0 0 64.13c0,23.68 -10.52,33.88 -29.11,33.88 -18.59,0 -29.27,-10.2 -29.27,-33.88l0 -64.13 -21.38 0 0 64.95c0,33.54 18.91,51.8 50.49,51.8z"/>
  <path id="16" class="fil48" d="M2782.83 208.63c18.91,0 35.03,-6.74 45.72,-19.24l-13.81 -13.16c-8.39,9.21 -18.75,13.65 -30.75,13.65 -23.85,0 -41.11,-16.77 -41.11,-40.45 0,-23.68 17.26,-40.45 41.11,-40.45 12,0 22.36,4.44 30.75,13.49l13.81 -12.99c-10.69,-12.5 -26.81,-19.24 -45.55,-19.24 -35.35,0 -61.67,24.84 -61.67,59.2 0,34.37 26.31,59.2 61.5,59.2z"/>
  <path id="17" class="fil48" d="M2899.91 208.63c18.91,0 35.03,-6.74 45.72,-19.24l-13.81 -13.16c-8.39,9.21 -18.75,13.65 -30.75,13.65 -23.85,0 -41.11,-16.77 -41.11,-40.45 0,-23.68 17.26,-40.45 41.11,-40.45 12,0 22.36,4.44 30.75,13.49l13.81 -12.99c-10.69,-12.5 -26.81,-19.24 -45.55,-19.24 -35.35,0 -61.67,24.84 -61.67,59.2 0,34.37 26.31,59.2 61.5,59.2z"/>
  <polygon id="18" class="fil48" points="2966.18,206.98 2987.56,206.98 2987.56,91.87 2966.18,91.87 "/>
  <path id="19" class="fil48" d="M3058.6 82.5l17.76 0 28.61 -22.53 -24.17 0 -22.2 22.53zm13.81 126.13c35.69,0 62,-24.99 62,-59.2 0,-34.2 -26.31,-59.2 -62,-59.2 -35.68,0 -61.99,25.16 -61.99,59.2 0,34.04 26.31,59.2 61.99,59.2zm0 -18.74c-23.19,0 -40.45,-16.94 -40.45,-40.45 0,-23.52 17.26,-40.45 40.45,-40.45 23.19,0 40.45,16.94 40.45,40.45 0,23.51 -17.27,40.45 -40.45,40.45z"/>
  <polygon id="20" class="fil48" points="3238.18,91.87 3238.18,169.81 3174.7,91.87 3157.11,91.87 3157.11,206.98 3178.32,206.98 3178.32,129.03 3241.8,206.98 3259.39,206.98 3259.39,91.87 "/>
 </g>
</svg>
