<?xml version="1.0" encoding="UTF-8"?>
<!DOCTYPE svg PUBLIC "-//W3C//DTD SVG 1.1//EN" "http://www.w3.org/Graphics/SVG/1.1/DTD/svg11.dtd">
<!-- Creator: CorelDRAW 2019 (64-Bit) -->
<svg xmlns="http://www.w3.org/2000/svg" xml:space="preserve" width="122.971mm" height="18.7012mm" version="1.1" style="shape-rendering:geometricPrecision; text-rendering:geometricPrecision; image-rendering:optimizeQuality; fill-rule:evenodd; clip-rule:evenodd"
viewBox="0 0 5213.39 792.84"
 xmlns:xlink="http://www.w3.org/1999/xlink"
 xmlns:xodm="http://www.corel.com/coreldraw/odm/2003">
 <defs>
  <style type="text/css">
   <![CDATA[
    .fil0 {fill:white}
   ]]>
  </style>
 </defs>
 <g id="Capa_x0020_1">
  <metadata id="CorelCorpID_0Corel-Layer"/>
  <g id="_2453077645680">
   <path class="fil0" d="M924.25 784.45l4.37 0c8.76,-7.54 20.95,-12.19 31.66,-18.32 38.7,-22.18 52.26,-37.17 81.8,-65.1 23.21,-21.94 73.44,-96.69 74.68,-119.7 1.26,-23.44 -104.51,-245.98 -120.64,-265.01 -31.09,21.16 -122.75,114.04 -153.88,146.42l-44.27 52.39c41.28,64.34 98.66,189.76 126.27,269.33z"/>
   <path class="fil0" d="M-0 574.31l0 12.01c22.91,27.49 25.45,84.18 128.25,160.79 17.66,13.16 42.49,22.58 61.13,37.34l4.39 0c21.1,-73.9 89.47,-201.45 125.83,-270.65 -6.67,-5.19 -13.86,-17.67 -22.7,-26.26l-121.82 -126.28c-7.67,-7.73 -44.34,-40.54 -52.75,-45.27 -15.95,15.98 -52.43,99.67 -65.77,126.64 -13.32,26.95 -44.6,115.41 -56.56,131.68z"/>
   <path class="fil0" d="M319.15 26.01l-4.81 0 -62.63 84.07c-22.09,30.81 -91.12,124.42 -96.38,151.84 20.39,10.99 33.25,27.57 51.57,42.99 52.52,44.2 97.59,99.21 146.1,148.16l120.01 -170.66c15.36,-20.19 28.18,-37.86 42.74,-54.99 -10.7,-20.28 -28.49,-33.37 -43.76,-51.22 -30.11,-35.18 -118.83,-122.48 -152.85,-150.19z"/>
   <path class="fil0" d="M803.46 26.01l-5.26 0c-7.41,10.61 -15.56,13.88 -25.7,24.56l-74.79 71.99c-32.86,32.6 -65.47,66.69 -95.58,102.68l82.98 111.86c27.46,39.43 53.67,76.96 79.01,117.3 22.7,-30 170.2,-178.82 198.11,-193.13 -8.5,-39.35 -133.84,-200.8 -158.79,-235.25z"/>
   <path class="fil0" d="M399.42 504.84c6.43,15.15 28.52,39.58 39.5,53.89 14.21,18.51 28.21,38.36 41.45,56.53 14.27,19.59 26.47,36.11 40.3,57.36 8.82,13.56 28.98,49.98 38.56,58l77.05 -113.71c12.93,-18.78 25.41,-35.92 39.82,-54.59l42.84 -54.18c-14.64,-36.28 -138.39,-213.82 -159.7,-230.38 -16.22,12.76 -71.11,91.92 -83.36,108.86 -27.78,38.41 -49.99,78.01 -76.44,118.23z"/>
  </g>
  <path class="fil0" d="M1348.47 20.18c-6.16,48.38 -5.37,431.9 0.18,486.64 45.1,8.05 50.04,4.36 98.31,4.06 41.68,-0.26 29.35,-22.79 29.35,-119.49 0,-47.91 -2.32,-101.91 0.82,-149.07 35.38,30.78 68.52,140.3 114.26,140.3 67.71,0 53,-14.36 108.02,-98.1 13.24,-20.15 13.25,-28.66 30.1,-40.55 0,51.47 -8.59,236.57 7.39,264.75 34.82,4.32 55.38,2.29 91.29,2.17 29.51,0 29.63,-9.16 29.63,-36.18l0 -429.73c0,-38.08 -23.18,-28.49 -99.92,-28.49 -39.56,0 -49.49,39.19 -85.45,96.44 -23.87,37.99 -45.49,74.24 -69,110.47 -30.81,-42.56 -72.14,-115.36 -103.44,-165.88 -22.75,-36.71 -17.47,-47.89 -123.19,-41.03l-28.34 3.69z"/>
  <path class="fil0" d="M4767.19 44.97l0 438.5c0,24.44 4.79,27.4 29.63,27.4 42.45,0 56.37,1.7 97.68,-3.39 13.04,-59.95 -0.87,-200.89 3.99,-273.94 13.04,12.46 38,54.3 50.09,71.87l123.89 183.08c20.56,31 43.63,22.38 105.91,22.38 11.01,0 19.19,-2.09 26.54,-4.92 8.93,-54.6 3.08,-379.91 3.02,-460.98 -0.03,-36.61 -13.8,-27.4 -99.78,-27.4 -40.29,0 -27.4,39.8 -27.4,123.87 0,50.73 0.9,102.28 -0.27,152.92l-150.14 -216.18c-44.91,-69.92 -32.77,-60.6 -133.52,-60.6 -24.84,0 -29.63,2.82 -29.63,27.4z"/>
  <path class="fil0" d="M4489.05 108.57c35.21,-4.52 78.57,7.69 93.91,27.37 20.25,25.98 15.44,71.62 15.44,110.75 -0,89.07 18.5,161 -75.37,173.08 -42.08,5.42 -72.63,-6.24 -94.1,-28.84 -24.62,-25.92 -18,-71.75 -18,-109.17 0.02,-86.3 -16.37,-161.06 78.11,-173.19zm-33.44 -104.42c-207.48,35.52 -177.09,172.82 -177.32,312.7 -0.16,90.39 19.58,135.44 75.9,170.82 102.69,64.51 284.06,56.11 355.04,-52.43 35.29,-53.96 22.86,-153.56 22.91,-223.63 0.08,-95.28 -18.14,-131.45 -75.95,-170.74 -49.71,-33.79 -129.95,-48.81 -200.58,-36.71z"/>
  <path class="fil0" d="M2419.07 44.97l0 438.5c0,37.38 27.46,27.4 101.94,27.4 39,0 27.43,-41.03 27.41,-75.64l0 -310.24 104.14 -1.09c103.33,0.13 104.82,110.45 16.89,121.79 -59.46,7.67 -55.29,-24.1 -55.29,93.07 0,33.09 71.09,109.67 92.96,142.62 26.83,40.42 43.01,29.49 133.98,29.49 75.69,0 -43.57,-92.67 -90.44,-176.47 39.78,-24.08 45.54,-21.04 75.76,-54.13 22.3,-24.42 35.53,-57.21 35.53,-99.36 0,-127.18 -106.3,-163.34 -213.79,-163.34l-197.19 0c-22.6,0 -31.92,4.47 -31.92,27.4z"/>
  <path class="fil0" d="M3794.86 44.97l0 438.5c0,37.48 28.36,27.4 103.03,27.4 39.37,0 27.42,-44.88 27.41,-80.02 -0.01,-36.45 0,-72.89 0,-109.34l182 -0.32c-0.03,48.82 -4.95,145.92 3.54,186.38 44.53,6.32 52.22,3.53 98.39,3.3 21.82,0 28.49,-5.06 28.49,-27.4l0 -438.5c0,-23.97 -5.13,-27.4 -28.49,-27.4 -38.91,0 -60.6,-1.69 -98.45,2.9 -8.43,40.32 -3.5,138.33 -3.5,186.46l-182 0.31c0.03,-35.3 0.02,-70.29 0.03,-105.26 0.01,-93.37 17.44,-84.41 -101.95,-84.41 -23.06,0 -28.49,3.65 -28.49,27.4z"/>
  <path class="fil0" d="M3094.64 323.41c8.31,-39.19 43.05,-121.93 60.16,-160.05l58.22 159.89 -118.38 0.16zm-174.59 187.47c99.86,0 102.48,19.66 131.82,-80.55l203.05 -0.58c11.84,42.56 22.69,81.13 55.39,81.13l98.1 -2.11c8.66,-24.16 -148.69,-387.69 -171.99,-446.9 -21.09,-53.59 -22.84,-44.29 -119.05,-44.29 -35.51,0 -34.88,16.25 -47.02,46.17 -9.1,22.42 -17.48,43.47 -26.56,65.51l-133.33 327.15c-11.04,27.7 -33.09,54.47 9.59,54.47z"/>
  <path class="fil0" d="M2137.07 165.58l33.37 76.5c9.62,25.64 21.91,53.87 28.82,81.32l-119.42 -0.39 57.23 -157.44zm-234.34 345.29c92.02,0 101.79,10.05 116.48,-29.39 6.7,-17.98 14.57,-34.47 18.93,-51.71l203.07 0c4.22,16.19 11.22,31.71 17.59,48.42 16.22,42.48 18.93,32.68 117.52,32.68 43.46,0 7.69,-49.51 -20.43,-120.96 -17.57,-44.63 -35.33,-85.16 -53.27,-130.89l-79.57 -196.73c-21.99,-54.44 -27.61,-44.73 -118.6,-44.73 -36.48,0 -36.1,17.57 -47.56,45.64l-133.27 327.12c-28.48,69.4 -63.53,120.54 -20.88,120.54z"/>
  <path class="fil0" d="M3328.92 44.97c0,97.26 -23.65,78.93 150.2,78.93l0 359.57c0,37.62 36.28,27.4 103.05,27.4 21.1,0 28.52,-7.41 28.52,-27.4l0 -359.57c36.26,0 121.87,4.86 145.26,-6 7.18,-21.56 3.8,-49.63 3.8,-72.93 0,-24 -5.05,-27.4 -28.49,-27.4l-371.62 0c-25.93,0 -30.72,2.82 -30.72,27.4z"/>
  <path class="fil0" d="M2740.82 668.2l38.6 91.74c6.6,17.09 7.22,22.02 17.84,28.29 28.31,-7.55 30.88,-78.17 60.29,-116.99 0,29.8 -4.26,91.47 2.7,117.02l18.69 0c7.25,-26.5 2.72,-133.76 2.72,-168.84 -42.66,0 -29.76,1.98 -54.58,64.93 -5.04,12.77 -9.27,22.56 -13.76,34.43l-16.32 33.53c-5.67,-20.98 -42.88,-124.68 -56.76,-133.12l-25.22 1.31 -0.01 166.15 24 -0.04 1.79 -118.39z"/>
  <path class="fil0" d="M1778.33 788.24c7.24,-26.48 2.22,-92.46 3,-124.14l66.31 102.37c12.47,20.81 7.02,21.66 37.56,21.75l-0.03 -169.26 -24.08 2.62 -0.31 117.83c-0.99,-0.83 -2.2,-1.95 -2.85,-2.6 -0.64,-0.65 -1.98,-1.81 -2.74,-2.62 -0.73,-0.77 -1.77,-1.77 -2.52,-2.64l-38.28 -58.77c-33.15,-50.31 -20.91,-53.21 -57.45,-53.37 0,35.08 -4.52,142.34 2.73,168.84l18.67 0z"/>
  <path class="fil0" d="M3609.58 663.82c13.72,16.24 29.35,44.57 42.6,65.3 31.52,49.33 27.48,64.58 60.46,57.47l-0.01 -166.72 -24.02 0.61 -1.49 120.57c-12.04,-11.73 -33.78,-49.88 -44.77,-67.7 -36.38,-59.03 -26.35,-53.96 -57.98,-53.96l0 168.82 24.01 0 1.2 -124.4z"/>
  <path class="fil0" d="M4659.07 692.25c-7.93,8.81 -30.45,5.54 -46.61,4.35l0.62 -59.22c20.22,-2.25 35.34,-4.09 48.22,4.27 27.1,7.24 28.66,47.53 -2.23,50.6zm22.94 10.5c29.95,-11.26 29.91,-55.87 7.41,-72.48 -20.45,-15.09 -69.51,-10.87 -99.79,-10.87 0,35.08 -4.52,142.34 2.72,168.84l20.63 0.03 0.83 -72.8 57.48 4.25c22.81,37.49 -11.55,70.93 39.51,67.98l-6.82 -49.53c-3.29,-29.44 -18.22,-29.08 -19.37,-33.36 -0.39,-1.43 -1.81,-1.29 -2.59,-2.06z"/>
  <path class="fil0" d="M3821.7 639.69c54.68,-9.65 78.38,9.92 78.72,62.99 0.32,50.43 -25.95,78.88 -79.32,64.16l0.59 -127.15zm-23.58 146.91c78.01,11.38 126.78,-5.38 126.33,-83.89 -0.47,-80.38 -47.66,-89.87 -126.33,-82.22l0 166.11z"/>
  <path class="fil0" d="M1569.35 737.8c-26.9,-112.31 66.52,-125.03 82.52,-69.02 7.89,27.61 4.97,75.78 -11.93,91.23 -25.4,23.22 -62.75,10.53 -70.58,-22.2zm14.08 -114.83c-43.57,19.9 -47.09,67.87 -38.72,113.62 14.38,78.62 159.06,82.93 132.58,-63.24 -6.97,-38.49 -47.3,-71.64 -93.86,-50.38z"/>
  <path class="fil0" d="M3012.69 640.25c66.39,-29.98 79.16,101.05 35.59,125.17 -36.86,20.4 -60.18,-9.75 -63.8,-40.56 -4.66,-39.66 -1.98,-70.96 28.21,-84.6zm-51.43 93.17c12.25,86.95 154.51,82.05 133.8,-56.75 -12.57,-84.26 -155.09,-94.39 -133.8,56.75z"/>
  <path class="fil0" d="M4002.04 619.4c0,90.81 -20.87,174.09 66.76,170.98 80.56,-2.86 60.41,-99.41 60.41,-170.52l-24.14 0.61c0,31.83 0.28,63.74 0.17,95.53 -0.11,34.1 -6.38,55.66 -40.76,55.43 -54.02,-0.36 -39.42,-79.11 -39.42,-152.04l-23.02 0z"/>
  <path class="fil0" d="M4205.93 738.88c-3.85,62.63 103.97,66.37 116.18,19.32 21.71,-83.67 -106.22,-39.66 -84.63,-115.2 13.18,-4.85 33.24,-12.68 49.42,-0.41 25.16,19.08 -6.33,26.15 36.34,26.15 -3.69,-40.16 -36.18,-61.63 -82.13,-48.39 -39.97,11.52 -43.12,63.29 -9.3,81.57 19.86,10.73 93.99,21.49 62.45,59.24 -9.3,11.13 -31.89,13.5 -48.52,6.04 -35,-15.69 4.45,-28.32 -39.81,-28.32z"/>
  <path class="fil0" d="M2573.65 658.35c11.85,16.15 16.31,44.19 24.4,65.53l-47.22 0.54 22.82 -66.07zm-68.26 129.87c25.66,-0.13 21.34,5.33 29.45,-14.75 2.52,-6.24 5.73,-20.65 7.57,-27.99 96.59,0 49.5,-0.76 80.81,42.76l18.95 0c-0.42,-16.71 -20.32,-65.99 -27.86,-86.64 -5.86,-16.04 -10.18,-29.15 -15.79,-45.78 -10.59,-31.39 -8.24,-34.57 -20.5,-36.41 -18.18,-2.73 -16.43,6.33 -26.11,35.21 -5.01,14.95 -9.21,26.76 -14.97,42.11 -10.62,28.29 -24.72,61.87 -31.55,91.5z"/>
  <path class="fil0" d="M3169.43 738.88c-3.08,59.34 90.62,66.28 112.6,27.42 36.12,-63.83 -71.36,-70.03 -82.43,-94.57 -9.06,-23.34 9.64,-39.36 35.52,-35.04 15.24,2.54 16.65,7.58 23,17.33 11.96,18.36 -0.69,14.35 28.07,14.72 -2.67,-38.82 -39.22,-64.52 -83.23,-47.32 -34.84,13.63 -41.9,57.15 -8.61,78.89 20.97,13.69 93.16,18.9 63.82,59.58 -8.39,11.64 -31.49,15.03 -47.58,7.64 -31.47,-14.46 -1,-28.29 -41.15,-28.64z"/>
  <path class="fil0" d="M5213.39 754.26l0 -19.22c-10.88,-15.73 -19.13,-28.96 -39.29,-36.81 -19.19,-7.48 -47,-8.49 -52.02,-27.43 -6.5,-24.56 13.84,-37.66 38.01,-33.96 18.94,2.9 17.42,6.57 23.28,16.85 10.75,18.87 -3.83,14.81 27.82,15.05 -5.25,-39.97 -32.42,-62.51 -80,-48.79 -36.62,10.56 -47.97,56.79 -14.66,78.94 23.49,15.63 82.75,16.14 69.08,54.37 -4.62,12.92 -21.75,21.04 -40.33,17.77 -25.73,-4.52 -22.08,-14.08 -32.75,-31.47l-20.04 -0.27c1.87,53.05 82.23,78 120.89,14.97z"/>
  <path class="fil0" d="M4961.77 660.82l20.38 63.62 -46.9 0.2c2.96,-12.82 6.06,-20.66 9.82,-31.58l8.42 -22.94c5.1,-8.06 2.73,-4.04 8.28,-9.31zm-71.24 127.42l18.95 0c31.23,-43.42 -15.81,-42.76 80.9,-42.76 12.1,54.07 13.37,42.68 36.93,42.74l-58.16 -168.61c-30.82,0.27 -21.48,1.55 -48.28,75.62 -7.17,19.84 -30.2,76.86 -30.34,93.01z"/>
  <path class="fil0" d="M1346.92 698.34c0,41.23 3.71,82.95 52.63,90.98 44.91,7.36 72.26,-15.01 74.54,-55.91 -35.99,0 -15.75,-4.29 -28.05,21.41 -10.59,22.1 -74.98,37.1 -74.98,-43.33 0,-107.41 64.7,-75.15 73.81,-59.46 13.46,23.18 -4.29,22.21 26.51,22.21 15.52,-65.32 -124.46,-97.36 -124.46,24.1z"/>
  <path class="fil0" d="M2267.78 733.41c-35.6,0 -16.06,-3.38 -27.96,21.57 -9.25,19.4 -74.01,41.64 -75.27,-47.79 -0.48,-33.55 4.7,-66.83 36.75,-70.66 18.13,-2.16 30.49,3.78 37.25,15.45 12.02,20.79 -3.25,22.24 26.51,22.24 15.45,-62.38 -123.31,-103.13 -123.55,28.49 -0.24,125.77 123.58,104.22 126.27,30.69z"/>
  <path class="fil0" d="M2075.07 772.04c-10.34,0 -70.37,1.23 -75.37,-0.25 -15.26,-4.51 -10.01,-54.77 -4.68,-60.1 15.79,-15.78 57.09,12.83 62.86,-13.36 -11.2,-4.03 -41.38,-0.27 -50.31,-1.42 -16.96,-2.18 -9.67,-0.11 -15.47,-6.15l3.01 -52.73 78.63 0 0 -18.74 -104.26 1.19 1.74 167.64 101.63 0.23 2.22 -16.33z"/>
  <path class="fil0" d="M2341.23 619.4c-22.62,0 -13.13,-0.42 -16.46,8.77 13.28,19.08 -9.89,5.55 54.01,10.69 3.08,38.3 -4.73,119.14 3.54,149.38l18.68 0c8.26,-30.24 0.45,-111.08 3.54,-149.38 37.74,-3.04 61.71,5.07 53.32,-12.89 -3.48,-7.48 3.65,-6.57 -15.78,-6.57l-100.85 0z"/>
  <path class="fil0" d="M4520.56 619.4c-23.32,0 -119.91,-6.04 -133.76,4.39 2.2,19.54 -6.43,14.26 54.5,14.24l2.5 150.21 18.13 0c8.26,-30.24 0.45,-111.08 3.53,-149.6l55.1 -0.6 0 -18.63z"/>
  <path class="fil0" d="M3473.64 620.49c0,28.88 0,57.75 0,86.62 0,78.35 -8.2,86.46 24.14,79.49l0 -166.72 -24.14 0.61z"/>
  <path class="fil0" d="M4789.13 620.49c0,28.88 0,57.75 0,86.62 0,78.35 -8.19,86.46 24.14,79.49l-0 -166.72 -24.14 0.61z"/>
  <path class="fil0" d="M2075.07 772.04c-1.03,-0.51 -2.52,-2.51 -3.12,-1.51l-76.93 -2.24 0.15 -56.59 67.85 -0.52 -0.14 -18.85 -70.78 -1.55c5.8,6.04 -1.5,3.97 15.47,6.15 8.93,1.14 39.11,-2.62 50.31,1.42 -5.77,26.19 -47.07,-2.43 -62.86,13.36 -5.33,5.32 -10.58,55.59 4.68,60.1 5.01,1.48 65.04,0.25 75.37,0.25z"/>
  <path class="fil0" d="M4659.07 692.25l-43.5 0.42 0 -52.8 45.73 1.78c-12.89,-8.36 -28.01,-6.52 -48.22,-4.27l-0.62 59.22c16.16,1.19 38.69,4.46 46.61,-4.35z"/>
 </g>
</svg>
