<?xml version="1.0" encoding="UTF-8"?>
<!DOCTYPE svg PUBLIC "-//W3C//DTD SVG 1.1//EN" "http://www.w3.org/Graphics/SVG/1.1/DTD/svg11.dtd">
<!-- Creator: CorelDRAW 2019 (64-Bit) -->
<svg xmlns="http://www.w3.org/2000/svg" xml:space="preserve" width="11.9385mm" height="8.0925mm" version="1.1" style="shape-rendering:geometricPrecision; text-rendering:geometricPrecision; image-rendering:optimizeQuality; fill-rule:evenodd; clip-rule:evenodd"
viewBox="0 0 48.7 33.01"
 xmlns:xlink="http://www.w3.org/1999/xlink"
 xmlns:xodm="http://www.corel.com/coreldraw/odm/2003">
 <defs>
  <style type="text/css">
   <![CDATA[
    .fil0 {fill:white}
   ]]>
  </style>
 </defs>
 <g id="Capa_x0020_1">
  <metadata id="CorelCorpID_0Corel-Layer"/>
  <path class="fil0" d="M13.92 21.27c-2.13,3.77 -3.98,7.72 -5.52,11.75 -3.85,-1.71 -6.89,-4.91 -8.4,-8.86l0.64 -1.7c1.34,-3.38 2.91,-6.69 4.66,-9.87 3.08,2.68 5.97,5.6 8.62,8.68z"/>
  <path class="fil0" d="M22.5 8.7c-2.57,3.14 -4.94,6.5 -7.06,9.98 -2.7,-3.07 -5.62,-5.96 -8.69,-8.59 2.07,-3.48 4.45,-6.86 7.05,-10.08 3.1,2.68 6.02,5.61 8.7,8.7z"/>
  <path class="fil0" d="M31.33 20.96c-2.53,3.09 -4.88,6.38 -6.98,9.81 -2.11,-3.44 -4.46,-6.73 -6.98,-9.81 2.07,-3.49 4.42,-6.87 6.98,-10.04 2.56,3.16 4.9,6.54 6.98,10.05z"/>
  <path class="fil0" d="M41.96 10.08c-3.08,2.65 -6,5.54 -8.68,8.6 -2.12,-3.48 -4.49,-6.83 -7.06,-9.98 2.65,-3.07 5.57,-5.99 8.7,-8.7 2.59,3.19 4.96,6.58 7.05,10.08z"/>
  <path class="fil0" d="M48.7 24.15c-1.5,3.95 -4.54,7.15 -8.4,8.87 -1.55,-4.05 -3.4,-8 -5.52,-11.75 2.66,-3.09 5.55,-6 8.62,-8.68 1.77,3.2 3.33,6.51 4.65,9.85l0.65 1.71z"/>
 </g>
</svg>
