<?xml version="1.0" encoding="UTF-8"?>
<!DOCTYPE svg PUBLIC "-//W3C//DTD SVG 1.1//EN" "http://www.w3.org/Graphics/SVG/1.1/DTD/svg11.dtd">
<!-- Creator: CorelDRAW 2019 (64-Bit) -->
<svg xmlns="http://www.w3.org/2000/svg" xml:space="preserve" width="62.9078mm" height="89.1637mm" version="1.1" style="shape-rendering:geometricPrecision; text-rendering:geometricPrecision; image-rendering:optimizeQuality; fill-rule:evenodd; clip-rule:evenodd"
viewBox="0 0 5914.18 8382.59"
 xmlns:xlink="http://www.w3.org/1999/xlink"
 xmlns:xodm="http://www.corel.com/coreldraw/odm/2003">
 <defs>
  <style type="text/css">
   <![CDATA[
    .fil0 {fill:#E2201A}
    .fil1 {fill:white}
   ]]>
  </style>
 </defs>
 <g id="Capa_x0020_1">
  <metadata id="CorelCorpID_0Corel-Layer"/>
  <path class="fil0" d="M2841.58 1780.13c521.48,-57.38 971.56,237.14 1186.22,644.02 415.35,787.35 -86.29,1752.26 -948.24,1841.55 -987.69,102.32 -1642.36,-977.6 -1207.78,-1809.15 186.26,-356.4 488.26,-623.43 969.81,-676.42zm-2836.83 1406.91c27.71,519.84 181.73,990.41 409.79,1376.56 116.23,196.78 232.57,351.41 355.82,539.11 112.68,171.58 232.56,353.98 351.42,544.81 226.32,363.36 470.26,729.52 694.7,1097.36 220.3,361.06 479.66,753.89 680.58,1099.79 65.77,113.22 114.08,181.6 172,275.66 58.85,95.57 100.65,203.92 203.78,245.06 224.58,89.57 343.32,-189.85 461.53,-392.07 221.59,-379.1 465.12,-739.14 678.34,-1101.8l650.43 -1033.96c27.42,-35.9 3.45,-0.41 24.82,-35.14l192.91 -302.82c55.88,-90.72 114.95,-177.43 177.68,-270.87 1.96,-2.91 7.46,-11.42 9.33,-14.4l261.31 -386.63c18.28,-28.21 26.53,-32.62 45.29,-59.3 151.78,-216.01 370.32,-664.98 440.7,-963.7 129.64,-550.32 139.73,-1073.71 -16.15,-1619.96 -34.14,-119.61 -68.44,-218.97 -114.4,-333.63 -307.88,-768.09 -997.14,-1460.84 -1851.76,-1721.13 -845.62,-257.56 -1784.5,-131.56 -2511.58,371.77 -237.8,164.63 -577.28,487.65 -734.93,715.36 -399.69,577.32 -622.24,1207.45 -581.6,1969.96z"/>
  <g id="_2490366035488">
   <path class="fil1" d="M3796.39 3339.74c13.53,-34.47 288.64,-319.5 332.14,-363.2 32.32,-32.48 319.13,-312.91 358.09,-333.43 65.68,110.95 173,330.11 229.26,453.77 35.7,78.45 71.19,156.28 104.31,239.65 15.89,39.99 33.16,80.75 49.11,122.29 10.1,26.29 45.47,99.8 37.14,123.77 -25.48,73.22 -77.74,167.89 -116.94,226.72 -116.92,175.48 -254.45,307.31 -437.87,413.37 -21.44,12.39 -88.34,49.67 -115.91,55.64 -43.02,-126.16 -147.19,-357.85 -206.05,-484.23 -36.54,-78.48 -76.07,-155.21 -113.12,-230.04 -34.95,-70.61 -97.37,-173.74 -120.17,-224.32zm-2113.65 938.46c-51.48,-11.01 -186.65,-98.12 -222.85,-123.93 -173.16,-123.47 -296.87,-269.97 -396.25,-458.62 -74.49,-141.4 -60.18,-113.41 -12.07,-242.29 92.8,-248.6 257.48,-587.73 380.69,-809.96 46.41,28.55 327.17,302.42 357.95,333.19 33.29,33.26 332.38,345.48 332.09,363.15 -15.48,35.91 -42.83,78.39 -62.16,114.22 -127.45,236.2 -290.51,581.8 -377.4,824.24zm718.35 -964.6c15.28,-44.14 236.78,-375.06 264.43,-415.15 48.73,-70.69 94.93,-128.81 143.21,-196.48 45.04,-63.13 107.52,-135.19 147.37,-191.55 13.14,5.18 14.02,10.62 24.02,22.96 7.3,8.99 11.69,14.44 18.36,22.73 80.47,99.99 182.06,238.02 254.4,342.75 14.75,21.35 265.26,394.97 264.66,414.74 -7.15,16.23 -58.48,75.75 -73.45,94.5 -137.66,172.32 -228.65,306.04 -353.55,486.45 -17.29,24.96 -121.93,196.22 -133.57,202.86 -43.27,-69.96 -84.87,-136.7 -130.39,-204.88 -72.92,-109.21 -199.99,-292.96 -280.1,-391.99l-145.38 -186.95zm708.72 -981.75c16.33,-38.08 286.06,-314.89 333.02,-362.08 87.22,-87.64 181.96,-170.73 268.93,-253.66 16.08,-15.33 77.98,-73.62 93.14,-80.02 18.74,12.14 127.93,158.57 152.83,192.09 24.41,32.85 46.06,63.89 73.07,98.56 53,68.05 331.66,480.65 338.37,518.18l-93.9 81.04c-15.78,14.77 -29.82,25.47 -45.62,40.25 -180.35,168.72 -304.3,291.17 -471.48,472.72 -14.64,15.9 -70.41,82.29 -83.93,88.95 -16.94,-15.97 -51.14,-79.79 -67.92,-104.85 -104.12,-155.56 -231.33,-356.42 -347.25,-499.97l-149.27 -191.2zm-1560.4 113.6c4.61,-22.58 113.37,-191.87 129.96,-215.66 49.52,-70.96 90.99,-136.25 138.5,-205.19 66.05,-95.83 146.78,-202.49 219.67,-295.39 14.75,-18.8 59.81,-83.32 76.35,-92.93 35.57,17.67 330.72,302.57 361.98,333.63 25.07,24.91 322.28,333.79 333.63,361.95l-149.48 191.52c-105.54,141.16 -182.81,251.35 -281.68,397.65 -23.27,34.43 -44.72,69.57 -67.11,104.61 -11.36,17.79 -55.79,92.78 -66.68,102.58 -13.74,-8.22 -33.54,-33.67 -44.31,-46.51 -13.73,-16.38 -25.9,-29.91 -40.39,-45.52 -186.83,-201.36 -315.54,-327.2 -518.28,-512.01 -29.12,-26.55 -61.86,-56.48 -92.16,-78.73zm1297.46 -1838.49c-47.73,4.82 -92.94,5.13 -141.23,10.15 -129.8,13.5 -261.9,39.2 -383.35,71.76 -721.49,193.42 -1316.5,723.15 -1603.88,1419.55 -269.87,653.95 -230.65,1359.38 71.64,1991.38 65.52,136.96 150.56,266.16 230.79,374.09 689.7,927.78 1955.9,1239.23 3013.92,719.48 516.79,-253.87 949.87,-715.68 1165.71,-1253.24 128.59,-320.29 189.31,-635 177.43,-1033.46 -11.65,-390.33 -154.82,-827.77 -357.74,-1151.97 -29.65,-47.37 -89.22,-139.47 -122.36,-179.82 -47.18,-57.45 -86.92,-112.35 -136.11,-166.18 -361.62,-395.78 -813.45,-661.07 -1353.15,-763.11 -153.85,-29.08 -397.71,-55.2 -561.67,-38.64z"/>
   <path class="fil0" d="M2846.87 606.97c163.96,-16.57 407.82,9.56 561.67,38.64 539.7,102.03 991.53,367.33 1353.15,763.11 49.19,53.83 88.94,108.73 136.11,166.18 33.14,40.35 92.71,132.45 122.36,179.82 202.92,324.2 346.09,761.63 357.74,1151.97 11.88,398.47 -48.84,713.18 -177.43,1033.46 -215.85,537.56 -648.92,999.36 -1165.71,1253.24 -1058.02,519.75 -2324.22,208.31 -3013.92,-719.48 -80.23,-107.93 -165.28,-237.13 -230.79,-374.09 -302.29,-632.01 -341.5,-1337.44 -71.64,-1991.38 287.38,-696.4 882.39,-1226.12 1603.88,-1419.55 121.45,-32.56 253.54,-58.26 383.35,-71.76 48.29,-5.02 93.5,-5.33 141.23,-10.15zm36.94 -150.09c-106.44,6.95 -195.69,10.55 -297.54,25.36 -573.95,83.47 -1102.52,362.44 -1481.98,765.38 -209.26,222.22 -388.55,478.96 -510.95,773.33 -128.37,308.69 -219.88,687.03 -201.99,1082.85 18.15,401.25 102.38,722.29 250.91,1031.9 142.5,297.04 340.55,558.68 540.06,744.1 232.11,215.72 467.91,382.36 773.53,510.55 848.17,355.73 1781.46,238.21 2516.94,-289.02 61.4,-44.02 125.55,-93.9 178.4,-142.46 169.93,-156.08 319.31,-311.64 449.73,-513.49 82.45,-127.6 160.58,-263.41 224.41,-417.49 287.87,-695.01 269.34,-1435.91 -48.79,-2114.9 -192.74,-411.34 -519.15,-780.9 -896.5,-1029.81 -270.08,-178.16 -574.88,-309.76 -907.62,-376.64 -171.22,-34.42 -402.53,-61.8 -588.61,-49.66z"/>
   <path class="fil0" d="M3796.39 3339.74c22.8,50.58 85.21,153.7 120.17,224.32 37.05,74.83 76.57,151.56 113.12,230.04 58.86,126.37 163.03,358.07 206.05,484.23 27.57,-5.97 94.46,-43.25 115.91,-55.64 183.42,-106.06 320.95,-237.89 437.87,-413.37 39.2,-58.83 91.47,-153.51 116.94,-226.72 8.33,-23.96 -27.05,-97.48 -37.14,-123.77 -15.95,-41.54 -33.22,-82.3 -49.11,-122.29 -33.12,-83.37 -68.61,-161.2 -104.31,-239.65 -56.26,-123.67 -163.58,-342.82 -229.26,-453.77 -38.96,20.52 -325.77,300.95 -358.09,333.43 -43.5,43.7 -318.61,328.73 -332.14,363.2z"/>
   <path class="fil0" d="M1682.74 4278.21c86.89,-242.44 249.94,-588.04 377.4,-824.24 19.33,-35.83 46.68,-78.3 62.16,-114.22 0.28,-17.67 -298.8,-329.88 -332.09,-363.15 -30.78,-30.77 -311.53,-304.64 -357.95,-333.19 -123.2,222.24 -287.89,561.36 -380.69,809.96 -48.11,128.88 -62.42,100.9 12.07,242.29 99.38,188.65 223.08,335.15 396.25,458.62 36.2,25.81 171.37,112.92 222.85,123.93z"/>
   <path class="fil0" d="M3109.81 2331.86l149.27 191.2c115.92,143.55 243.13,344.41 347.25,499.97 16.78,25.06 50.98,88.88 67.92,104.85 13.52,-6.66 69.29,-73.05 83.93,-88.95 167.17,-181.55 291.13,-304 471.48,-472.72 15.79,-14.78 29.83,-25.48 45.62,-40.25l93.9 -81.04c-6.71,-37.53 -285.38,-450.14 -338.37,-518.18 -27.01,-34.67 -48.66,-65.72 -73.07,-98.56 -24.89,-33.52 -134.09,-179.95 -152.83,-192.09 -15.15,6.4 -77.06,64.69 -93.14,80.02 -86.96,82.93 -181.71,166.02 -268.93,253.66 -46.96,47.19 -316.69,324 -333.02,362.08z"/>
   <path class="fil0" d="M1549.41 2445.46c30.3,22.24 63.05,52.18 92.16,78.73 202.74,184.8 331.44,310.65 518.28,512.01 14.49,15.62 26.66,29.14 40.39,45.52 10.76,12.84 30.57,38.29 44.31,46.51 10.9,-9.8 55.33,-84.79 66.68,-102.58 22.38,-35.04 43.84,-70.18 67.11,-104.61 98.87,-146.29 176.14,-256.49 281.68,-397.65l149.48 -191.52c-11.35,-28.16 -308.55,-337.04 -333.63,-361.95 -31.26,-31.05 -326.41,-315.95 -361.98,-333.63 -16.54,9.61 -61.6,74.13 -76.35,92.93 -72.89,92.9 -153.62,199.56 -219.67,295.39 -47.51,68.94 -88.98,134.23 -138.5,205.19 -16.59,23.79 -125.36,193.08 -129.96,215.66z"/>
   <path class="fil0" d="M2401.09 3313.61l145.38 186.95c80.12,99.03 207.19,282.78 280.1,391.99 45.52,68.18 87.11,134.93 130.39,204.88 11.65,-6.64 116.29,-177.9 133.57,-202.86 124.9,-180.41 215.88,-314.14 353.55,-486.45 14.98,-18.76 66.31,-78.28 73.45,-94.5 0.6,-19.77 -249.91,-393.39 -264.66,-414.74 -72.34,-104.73 -173.93,-242.76 -254.4,-342.75 -6.67,-8.29 -11.07,-13.74 -18.36,-22.73 -10,-12.33 -10.88,-17.78 -24.02,-22.96 -39.84,56.36 -102.32,128.42 -147.37,191.55 -48.28,67.67 -94.48,125.79 -143.21,196.48 -27.65,40.1 -249.15,371.01 -264.43,415.15z"/>
  </g>
 </g>
</svg>
